<?xml version="1.0" standalone="no"?>
<!DOCTYPE svg PUBLIC "-//W3C//DTD SVG 20010904//EN"
 "http://www.w3.org/TR/2001/REC-SVG-20010904/DTD/svg10.dtd">
<svg version="1.0" xmlns="http://www.w3.org/2000/svg"
 width="16.000000pt" height="16.000000pt" viewBox="0 0 16.000000 16.000000"
 preserveAspectRatio="xMidYMid meet">
<metadata>
Created by potrace 1.11, written by Peter Selinger 2001-2013
</metadata>
<g transform="translate(0.000000,16.000000) scale(0.001852,-0.001852)"
fill="#000000" stroke="none">
<path d="M4079 8575 c-2 -2 -49 -6 -105 -9 -55 -4 -109 -8 -120 -10 -10 -2
-44 -7 -74 -11 -104 -13 -125 -16 -210 -31 -81 -15 -184 -37 -315 -70 -33 -8
-105 -29 -160 -46 -55 -18 -107 -33 -115 -34 -8 -2 -30 -10 -50 -18 -19 -8
-69 -27 -110 -42 -41 -15 -94 -35 -117 -45 -24 -11 -64 -28 -90 -40 -67 -29
-291 -142 -333 -168 -19 -11 -44 -25 -56 -30 -12 -5 -45 -25 -75 -44 -30 -19
-60 -32 -67 -30 -7 3 -11 0 -10 -5 2 -6 -27 -30 -64 -55 -38 -25 -68 -44 -68
-41 0 2 -8 -4 -19 -13 -10 -10 -56 -45 -101 -78 -46 -33 -88 -65 -94 -70 -6
-6 -33 -28 -61 -50 -103 -83 -199 -171 -333 -305 -58 -58 -109 -104 -114 -102
-5 1 -7 -1 -4 -6 2 -4 -16 -31 -42 -59 -26 -29 -58 -66 -72 -84 -14 -17 -32
-39 -40 -48 -8 -9 -28 -35 -45 -56 -16 -22 -34 -45 -40 -51 -5 -6 -17 -22 -25
-34 -8 -12 -29 -41 -46 -64 -17 -22 -43 -61 -59 -85 -15 -25 -31 -49 -36 -55
-15 -18 -53 -78 -79 -123 -13 -23 -26 -40 -30 -38 -4 3 -7 -3 -6 -13 0 -9 -4
-16 -11 -15 -7 2 -10 -3 -7 -11 3 -7 -2 -21 -11 -30 -9 -9 -14 -16 -10 -16 3
0 -2 -12 -12 -27 -10 -16 -27 -46 -38 -68 -11 -22 -24 -43 -28 -46 -5 -3 -9
-10 -10 -15 -1 -5 -6 -8 -10 -6 -5 1 -5 -2 -2 -8 4 -6 -5 -35 -20 -65 -14 -30
-41 -89 -59 -130 -18 -42 -37 -76 -42 -76 -5 -1 -11 -3 -14 -6 -3 -4 1 -2 9 2
11 6 13 4 7 -11 -4 -10 -17 -43 -28 -71 -11 -29 -23 -51 -27 -49 -3 2 -7 -8
-7 -22 -3 -39 -50 -163 -59 -154 -5 4 -5 1 -1 -5 8 -14 -24 -126 -36 -131 -5
-2 -6 -7 -3 -12 2 -4 -3 -32 -12 -61 -9 -30 -15 -60 -14 -68 1 -7 -1 -11 -6
-8 -4 3 -8 -11 -9 -30 0 -19 -5 -38 -10 -41 -5 -4 -10 -20 -10 -37 -2 -32 -13
-94 -18 -104 -2 -3 -7 -28 -10 -56 -4 -27 -11 -67 -16 -87 -4 -21 -6 -38 -3
-38 3 0 0 -7 -7 -15 -9 -11 -9 -15 -1 -15 9 0 9 -6 0 -22 -7 -12 -12 -38 -11
-56 1 -19 -3 -43 -9 -53 -7 -13 -6 -19 1 -19 6 0 8 -4 5 -10 -18 -29 -34 -462
-23 -612 2 -20 -1 -34 -6 -31 -5 4 -6 0 0 -8 4 -8 10 -22 11 -32 2 -15 -2 -17
-19 -13 l-23 6 23 -11 c12 -7 22 -18 22 -26 0 -8 -4 -12 -10 -8 -5 3 -3 -7 5
-22 10 -19 11 -31 3 -40 -6 -8 -7 -13 0 -13 5 0 10 -11 10 -25 0 -15 -5 -22
-12 -18 -6 3 -3 -2 6 -13 12 -13 14 -24 8 -34 -5 -8 -10 -19 -10 -25 0 -5 5
-3 10 5 7 11 10 3 11 -30 0 -25 2 -55 5 -68 2 -13 0 -21 -5 -17 -5 3 -13 1
-16 -5 -4 -6 -3 -10 2 -9 27 5 35 -1 23 -16 -7 -8 -17 -12 -23 -8 -6 3 -7 1
-3 -6 6 -9 11 -9 24 1 13 11 15 10 10 -14 -3 -16 -1 -28 3 -28 5 0 9 -5 9 -11
0 -5 -4 -8 -9 -4 -5 3 -13 1 -16 -5 -4 -6 -1 -9 7 -8 7 2 12 -3 11 -9 -2 -7 2
-13 9 -13 9 0 9 -3 0 -12 -7 -7 -12 -17 -12 -22 0 -6 5 -4 10 4 7 11 10 7 11
-20 2 -33 4 -48 9 -60 2 -7 9 -40 15 -70 5 -31 9 -49 30 -128 9 -34 13 -67 9
-74 -5 -7 -3 -8 6 -3 10 6 12 3 8 -13 -4 -14 -2 -20 5 -15 6 4 8 -2 4 -16 -3
-13 -3 -20 1 -17 3 4 12 -12 19 -36 9 -31 9 -46 1 -55 -6 -8 -8 -16 -4 -20 3
-3 6 -1 6 5 0 7 5 12 12 12 6 0 8 -3 5 -7 -4 -3 -3 -11 2 -17 5 -6 18 -40 29
-76 11 -36 31 -93 45 -128 14 -34 20 -60 14 -56 -7 3 -5 0 4 -8 14 -11 36 -72
27 -74 -2 0 5 -8 14 -18 10 -10 18 -24 18 -31 0 -8 11 -34 24 -59 16 -30 20
-47 12 -50 -6 -2 -5 -5 4 -5 13 -1 72 -115 60 -117 -3 0 2 -8 10 -17 42 -46
52 -64 28 -52 -7 4 -4 -1 6 -9 11 -9 14 -16 7 -16 -7 0 1 -12 16 -26 15 -14
21 -23 13 -19 -10 4 -9 1 3 -8 9 -8 17 -21 17 -30 0 -8 7 -17 15 -21 9 -3 12
-12 8 -22 -4 -12 -3 -15 5 -10 15 9 16 -26 1 -41 -8 -8 -7 -13 2 -18 7 -5 10
-4 6 2 -4 6 1 17 11 24 9 7 14 10 10 5 -4 -5 0 -15 8 -23 8 -9 13 -22 10 -29
-3 -7 0 -16 6 -20 7 -5 8 -2 4 7 -4 8 1 3 12 -11 15 -18 18 -28 10 -38 -8 -10
-7 -11 7 -6 14 6 16 3 11 -12 -3 -10 -1 -26 5 -34 8 -11 9 -9 3 10 -6 22 -5
24 10 11 9 -8 15 -20 12 -27 -3 -7 0 -16 6 -20 7 -5 8 -2 3 6 -5 9 -4 11 3 6
7 -4 12 -14 12 -22 0 -8 5 -14 11 -14 5 0 8 -4 5 -9 -3 -5 1 -12 10 -15 9 -4
14 -13 10 -22 -3 -8 -2 -13 3 -10 13 8 34 -21 25 -35 -4 -7 -3 -9 3 -6 16 10
84 -87 77 -109 -5 -15 -4 -16 5 -4 5 8 12 12 14 10 36 -47 46 -64 40 -74 -3
-6 -3 -8 2 -4 9 8 35 -15 35 -32 0 -6 4 -8 10 -5 6 3 10 -4 10 -16 0 -12 3
-19 6 -16 9 9 45 -33 38 -45 -3 -4 -2 -8 3 -7 22 4 33 -3 33 -20 0 -11 5 -23
12 -27 7 -5 8 -2 3 7 -4 8 6 1 23 -16 16 -16 28 -32 26 -34 -2 -3 8 -13 23
-23 16 -10 24 -18 20 -18 -5 0 13 -18 38 -40 25 -22 44 -40 41 -40 -3 0 5 -10
17 -23 12 -13 25 -22 28 -20 7 3 23 -27 21 -40 -1 -4 1 -6 5 -6 20 3 34 -2 28
-11 -3 -5 1 -10 9 -10 8 0 19 -7 24 -16 5 -9 13 -15 18 -14 5 2 14 -7 20 -19
6 -11 14 -18 19 -13 5 4 5 1 1 -5 -4 -8 -2 -13 6 -13 17 0 84 -61 80 -73 -1
-5 3 -7 10 -5 13 5 22 -1 59 -35 20 -18 17 -43 -4 -31 -7 4 -8 3 -4 -1 10 -12
38 -15 31 -4 -9 14 10 10 32 -7 10 -8 13 -12 5 -8 -9 5 -12 3 -7 -4 4 -7 16
-12 26 -12 10 0 20 -3 22 -7 2 -5 26 -24 53 -43 28 -19 58 -41 68 -50 10 -8
23 -15 30 -15 7 -1 11 -6 9 -13 -1 -7 5 -12 13 -12 9 0 48 -21 88 -47 40 -27
85 -54 100 -62 15 -8 27 -18 27 -23 0 -5 4 -7 9 -4 5 3 19 -2 32 -12 13 -10
41 -26 62 -37 20 -11 37 -22 37 -26 0 -4 14 -9 31 -13 25 -5 30 -10 24 -23 -5
-14 -3 -15 5 -6 9 8 29 3 82 -22 89 -43 108 -59 33 -29 -8 3 -15 2 -15 -3 0
-5 6 -10 13 -11 6 -1 29 -3 49 -6 20 -2 47 -11 60 -20 12 -9 30 -16 40 -16 10
0 18 -5 18 -11 0 -5 4 -8 9 -5 14 9 42 -5 34 -17 -4 -6 0 -8 11 -4 10 4 19 1
23 -8 4 -12 9 -13 19 -4 9 8 14 8 14 1 0 -6 -5 -14 -10 -17 -6 -3 -10 -11 -10
-18 0 -6 7 -1 16 12 12 16 19 20 27 12 6 -6 19 -11 29 -11 10 0 18 -4 18 -9 0
-5 -9 -7 -20 -4 -11 3 -20 0 -20 -6 0 -5 7 -8 15 -5 11 5 14 2 8 -12 -4 -14
-1 -12 14 6 16 18 24 22 34 14 12 -10 69 -28 77 -25 1 1 15 -5 31 -13 15 -8
39 -16 53 -18 14 -2 32 -9 41 -16 8 -7 22 -10 31 -6 9 3 16 2 16 -3 0 -5 14
-10 32 -11 17 -2 37 -7 44 -13 7 -6 18 -8 23 -5 5 4 13 1 17 -5 5 -8 3 -9 -6
-4 -9 6 -11 4 -5 -4 5 -9 10 -10 18 -2 8 8 16 6 31 -7 11 -9 16 -12 12 -5 -4
8 0 10 16 7 13 -3 34 -7 47 -10 13 -3 32 -9 42 -14 10 -6 26 -7 36 -3 16 6 17
5 3 -12 -14 -17 -13 -18 5 -8 11 6 37 8 58 5 33 -4 37 -7 32 -26 -5 -18 -4
-17 9 4 9 14 15 20 16 14 0 -10 10 -12 95 -16 24 -2 34 -6 31 -15 -3 -7 -1
-15 5 -18 5 -4 7 -11 4 -16 -4 -5 -1 -9 4 -9 14 0 14 13 0 27 -7 7 -7 13 -1
17 13 8 72 -4 72 -15 0 -5 8 -9 18 -9 13 0 14 2 3 9 -9 6 -5 8 13 8 27 1 35
-12 14 -20 -7 -2 -9 -8 -5 -13 5 -5 13 -1 18 9 6 9 15 17 20 17 6 0 7 -6 3
-12 -6 -10 -5 -10 7 -1 8 6 30 9 49 7 19 -3 58 -6 87 -7 28 -1 49 -5 47 -9 -7
-12 24 -10 48 3 11 6 18 7 15 2 -3 -4 70 -8 161 -8 92 -1 174 -3 182 -6 8 -3
12 -4 8 -2 -16 9 -7 23 10 16 15 -8 39 -9 52 -3 13 6 70 6 70 1 0 -4 -5 -12
-12 -19 -9 -9 -9 -15 1 -25 10 -10 11 -8 5 7 -5 13 -4 17 3 13 6 -4 17 1 24
10 10 12 10 14 2 9 -7 -4 -13 -3 -13 2 0 5 18 10 40 10 28 1 39 -3 34 -11 -3
-7 2 -3 10 7 9 11 19 17 22 13 4 -4 1 -15 -7 -24 -13 -16 -12 -17 3 -4 17 13
23 8 19 -13 -1 -5 5 -4 13 4 17 13 22 25 7 16 -5 -3 -12 1 -15 10 -4 11 -2 15
8 11 8 -3 17 -3 20 1 4 3 25 7 48 8 28 2 37 -1 27 -7 -10 -6 -11 -9 -1 -9 7 0
15 6 18 14 6 14 51 16 73 2 10 -6 12 -5 7 2 -5 8 8 14 36 19 24 4 47 6 52 5 4
-2 15 3 24 10 12 10 14 10 8 1 -4 -7 -2 -13 3 -13 6 0 11 4 11 8 0 5 6 9 13 9
6 0 25 4 41 8 21 6 27 5 22 -4 -4 -6 -12 -9 -17 -6 -5 4 -9 1 -9 -4 0 -6 5
-11 11 -11 5 0 7 -5 3 -12 -4 -7 -3 -8 5 -4 6 4 9 11 6 15 -2 5 4 16 15 26 14
13 36 18 76 17 39 0 57 4 61 14 3 8 12 14 21 14 13 0 13 -2 -1 -18 -10 -10
-17 -23 -17 -28 0 -4 7 2 16 14 12 18 19 20 34 12 16 -8 18 -8 14 5 -3 8 -10
12 -15 9 -5 -3 -9 0 -9 5 0 6 13 11 28 11 15 0 33 5 40 12 7 7 12 8 12 2 0 -6
-5 -15 -12 -22 -7 -7 -8 -12 -2 -12 6 0 16 11 22 24 8 18 18 24 36 22 14 -2
26 1 26 6 0 5 4 7 10 3 5 -3 7 -12 3 -20 -3 -8 0 -15 7 -15 6 0 9 4 6 9 -4 5
0 12 6 14 10 4 10 6 1 6 -18 1 -16 18 2 18 8 0 15 -5 15 -11 0 -5 6 -2 13 7 6
9 21 18 32 20 11 1 26 6 33 11 9 5 15 1 19 -13 3 -12 9 -21 14 -21 5 0 6 7 2
16 -5 15 -4 15 20 0 22 -15 25 -15 23 -2 -1 9 -6 19 -11 23 -4 4 -5 2 -1 -4 9
-15 -10 -18 -19 -3 -4 6 -11 8 -16 5 -5 -4 -9 -1 -9 5 0 7 7 10 15 7 8 -4 17
-2 21 4 4 6 12 5 22 -3 14 -11 15 -10 9 5 -5 13 -3 17 5 14 7 -2 12 -13 10
-23 -2 -15 -1 -16 7 -5 5 8 6 21 3 30 -5 14 -4 14 12 2 13 -11 19 -12 29 -2 9
10 8 11 -5 6 -10 -4 -18 -3 -18 2 0 5 6 10 13 11 20 2 40 8 82 27 22 10 46 18
53 18 6 0 12 4 12 8 0 3 8 9 18 13 9 3 23 9 30 12 8 4 10 0 5 -13 -4 -12 3 -9
21 11 25 26 28 27 45 12 10 -9 21 -16 26 -16 5 0 0 6 -11 14 -10 8 -17 16 -14
18 19 13 100 47 96 39 -4 -5 -2 -13 4 -16 6 -4 10 -3 9 2 -5 30 36 56 99 62 6
0 12 8 12 16 0 8 3 15 8 16 29 3 47 9 50 18 5 16 33 13 54 -6 18 -16 18 -16
12 0 -3 9 -10 17 -15 17 -28 0 15 36 45 38 5 0 13 8 18 17 8 13 13 14 24 4 8
-6 17 -9 21 -5 3 3 1 6 -5 6 -7 0 -12 4 -12 9 0 6 9 8 19 6 14 -3 18 1 14 11
-5 12 7 19 30 15 4 0 7 4 7 10 0 6 6 9 14 6 8 -3 22 1 33 9 17 14 16 14 -4 4
-35 -17 -27 -5 16 23 28 18 41 23 44 14 3 -7 6 -3 6 7 1 11 4 17 7 13 4 -3 15
4 25 16 10 12 18 16 19 10 0 -7 4 -13 10 -13 5 0 7 6 4 14 -6 16 31 41 46 31
6 -4 7 1 3 11 -4 11 -3 15 4 11 6 -4 13 -1 16 5 3 10 8 10 23 -2 14 -11 16
-11 7 0 -10 11 -9 17 4 32 10 12 20 15 27 9 7 -6 17 -6 26 1 12 8 12 9 -2 4
-10 -3 -18 -2 -18 2 0 10 73 67 83 64 4 -1 7 2 7 8 0 5 5 10 11 10 5 0 7 -5 3
-12 -4 -7 -3 -8 5 -4 6 4 9 12 6 17 -6 8 51 64 64 64 3 0 21 17 40 38 29 32
40 38 64 34 25 -3 27 -2 14 8 -14 10 -12 15 18 42 18 17 36 29 39 25 3 -3 6 3
6 13 0 18 1 18 15 -1 13 -18 14 -18 8 5 -4 17 -3 22 5 17 7 -4 10 -2 7 6 -3 7
8 22 25 33 17 11 32 27 35 36 3 9 16 22 30 29 13 7 22 16 20 20 -3 5 2 11 11
14 22 9 26 8 18 -6 -4 -7 -3 -8 5 -4 8 6 9 11 2 20 -14 16 22 52 40 40 7 -4
10 -3 6 2 -3 6 -1 16 4 24 8 13 10 13 20 0 8 -12 9 -11 4 7 -5 17 6 34 51 79
31 31 51 54 43 50 -8 -4 -6 -1 4 7 9 8 17 19 17 25 0 5 14 22 31 36 17 14 28
26 24 26 -4 0 0 7 9 15 16 17 30 20 21 6 -3 -5 -2 -12 3 -15 5 -3 8 9 8 26 -1
31 19 50 27 26 2 -7 2 -1 0 14 -3 18 2 30 16 40 12 8 18 18 15 21 -4 3 9 16
27 28 19 11 26 19 17 15 -15 -4 -16 -3 -5 14 6 11 15 20 19 20 5 0 8 7 8 16 0
10 6 14 14 11 10 -4 13 -1 10 7 -3 8 0 17 5 21 6 3 8 11 5 17 -5 8 -1 9 10 5
11 -4 15 -3 11 4 -8 13 42 92 54 85 5 -3 8 4 7 17 -1 15 4 21 14 19 8 -2 12 0
8 3 -4 4 -2 17 4 29 7 11 11 25 10 29 -1 4 5 10 13 13 8 3 12 10 9 15 -3 5 0
9 5 9 6 0 10 6 9 13 -2 6 2 11 9 10 7 -2 10 4 7 12 -4 8 -1 15 5 15 6 0 11 3
10 8 -2 15 14 52 22 52 5 0 8 3 8 8 -4 25 2 34 15 23 11 -9 13 -6 10 14 -1 14
3 31 9 38 7 7 13 19 15 27 2 8 9 18 15 22 7 4 8 8 4 8 -4 0 -2 10 5 23 6 12
13 28 14 36 2 8 8 17 14 21 7 4 11 10 11 14 -3 20 0 26 9 21 6 -4 7 1 3 11 -4
11 -3 15 4 11 7 -5 9 0 6 13 -3 11 0 20 6 20 6 0 10 3 10 7 -3 18 2 34 9 30 4
-3 8 7 9 21 0 15 6 28 12 30 5 2 7 10 4 19 -5 12 -3 14 7 8 9 -5 11 -4 6 3 -4
6 2 32 14 56 11 25 20 52 20 61 0 12 7 14 32 10 18 -4 30 -3 26 0 -3 4 -14 8
-24 9 -24 4 -28 20 -10 39 8 8 13 17 10 19 -10 11 16 59 28 52 10 -5 10 -4 1
6 -11 12 -11 20 4 58 3 9 8 26 10 37 2 11 8 24 13 29 4 4 6 15 2 24 -4 11 -1
14 10 10 8 -4 15 -1 15 8 0 7 -4 11 -9 8 -11 -7 -10 3 3 27 5 11 14 17 20 14
5 -4 9 -1 9 5 0 7 -7 9 -16 6 -12 -5 -15 -2 -10 10 3 9 9 27 12 40 3 13 10 22
14 19 5 -3 12 -1 15 5 4 6 2 9 -3 8 -8 -3 -14 5 -11 15 6 19 10 46 10 60 0 9
3 16 7 13 6 -4 8 9 12 87 1 15 5 27 9 27 5 0 6 11 3 25 -5 27 6 32 28 12 12
-10 12 -9 0 7 -15 20 -22 66 -9 66 4 0 5 9 2 20 -3 13 0 20 8 20 12 0 12 2 0
9 -9 6 -10 11 -3 15 6 4 8 14 5 23 -5 12 -3 14 8 8 11 -7 12 -6 2 7 -7 8 -11
17 -8 20 3 2 6 23 7 46 1 23 5 39 11 35 5 -3 4 5 -3 17 -11 20 -10 21 12 15
20 -5 20 -4 6 5 -20 12 -24 45 -8 55 8 5 8 11 1 19 -6 7 -8 16 -4 20 4 4 6 25
4 48 -2 31 0 39 11 33 10 -6 11 -5 1 6 -15 15 -18 33 -5 25 10 -6 9 30 -1 40
-3 4 -2 15 4 25 7 14 6 19 -3 19 -8 0 -9 3 -2 10 6 6 9 31 7 56 -3 29 -1 44 6
40 5 -4 13 -2 16 4 4 6 1 9 -7 8 -10 -2 -13 16 -13 80 0 45 -2 82 -5 82 -8 0
-5 44 5 60 6 9 4 11 -6 5 -11 -7 -12 -6 -2 6 9 11 9 19 2 26 -6 6 -10 30 -7
52 2 23 1 41 -2 41 -3 0 -5 28 -5 63 0 34 -4 65 -8 68 -5 4 -4 17 3 29 8 15 8
20 1 16 -7 -5 -11 3 -12 21 -4 70 -5 82 -12 89 -4 4 -1 14 6 22 9 13 9 14 0 8
-9 -5 -13 2 -13 23 0 40 0 43 -11 62 -5 10 -3 21 4 29 8 8 8 11 1 7 -19 -11
-23 40 -5 59 15 17 15 17 -1 5 -18 -13 -17 -15 -32 79 -3 14 -5 25 -6 25 -3 0
-10 39 -13 67 -1 16 -5 28 -9 28 -5 0 -8 8 -8 18 0 18 -56 212 -86 297 -9 28
-18 57 -19 65 -1 8 -10 33 -20 55 -27 61 -34 79 -37 95 -2 8 -7 18 -11 21 -5
4 -10 18 -10 32 -1 14 -5 24 -8 22 -3 -2 -11 13 -19 33 -33 95 -188 394 -273
528 -14 23 -23 45 -20 48 4 3 1 6 -5 6 -13 0 -44 54 -37 64 3 3 2 4 -2 1 -10
-8 -43 47 -36 59 3 6 3 8 -2 4 -4 -4 -23 14 -41 40 -18 26 -37 52 -41 57 -4 6
-28 37 -53 70 -54 72 -71 93 -87 110 -7 8 -13 16 -13 19 0 3 -10 16 -22 29
-13 12 -41 44 -63 70 -22 26 -76 85 -121 132 -45 46 -79 87 -76 90 3 3 0 5 -7
5 -7 0 -36 24 -65 53 -29 28 -79 75 -111 102 -32 28 -67 58 -79 68 -11 10 -36
31 -55 45 -19 15 -39 32 -45 37 -6 6 -54 41 -106 79 -52 38 -101 76 -107 85
-7 8 -13 12 -13 8 0 -4 -23 9 -50 28 -218 153 -558 328 -836 431 -71 26 -142
53 -159 59 -16 7 -46 16 -65 20 -19 4 -41 12 -47 17 -7 6 -13 8 -13 5 0 -4
-19 0 -41 9 -23 8 -51 16 -63 19 -12 2 -41 9 -66 16 -25 6 -53 13 -62 15 -10
2 -26 6 -35 9 -36 9 -223 45 -260 50 -21 2 -47 7 -59 9 -12 2 -45 7 -75 11
-30 3 -70 8 -89 10 -101 14 -179 17 -426 20 -150 2 -273 2 -275 0z m-60 -4199
l0 -3583 -27 4 c-15 2 -45 5 -67 7 -98 9 -170 18 -175 21 -3 2 -26 6 -50 10
-64 9 -342 72 -376 86 -16 6 -36 12 -45 14 -131 27 -570 215 -744 319 -22 14
-54 32 -72 41 -18 9 -37 23 -44 31 -6 8 -15 14 -20 14 -12 0 -217 141 -251
172 -15 14 -28 24 -28 22 0 -7 -178 142 -239 200 -122 115 -151 145 -151 156
0 6 -4 8 -10 5 -5 -3 -10 -2 -10 3 0 5 -21 31 -47 59 -49 50 -84 91 -138 157
-16 21 -37 46 -45 56 -8 10 -22 28 -30 40 -8 12 -37 52 -65 90 -80 108 -165
243 -165 260 0 6 -4 10 -8 10 -8 0 -157 291 -200 390 -47 107 -92 242 -86 253
4 7 3 9 -1 4 -11 -10 -68 162 -61 186 2 9 0 15 -5 11 -8 -4 -12 17 -8 42 0 4
-4 10 -9 13 -5 3 -12 22 -15 41 -5 33 -28 137 -47 208 -4 17 -5 30 0 27 4 -2
2 12 -5 33 -10 28 -10 39 -2 44 9 6 8 8 -2 8 -8 0 -11 7 -8 20 3 11 2 20 -2
20 -4 0 -8 6 -8 13 -1 6 -3 41 -7 77 -23 249 -25 302 -12 319 8 11 8 13 0 8
-7 -4 -11 16 -11 63 0 38 3 67 8 65 4 -3 11 -1 14 5 4 6 1 9 -7 8 -15 -3 -16
53 -4 232 7 124 14 172 27 184 5 6 4 15 -2 23 -7 7 -8 13 -3 13 5 0 10 23 10
50 1 28 8 58 15 67 8 9 9 14 2 10 -8 -5 -9 1 -3 25 5 18 11 44 14 58 3 14 10
52 16 85 11 56 34 90 54 78 5 -4 6 -1 2 6 -6 9 -11 9 -22 0 -9 -7 -14 -8 -14
-1 0 20 12 42 20 37 5 -3 12 -1 15 5 4 6 3 9 -2 8 -8 -3 -13 5 -13 23 0 5 5 7
10 4 6 -3 10 -2 10 4 0 5 -4 11 -9 13 -5 2 -4 14 2 28 5 14 11 30 12 35 3 22
19 72 33 105 9 19 15 41 13 49 -1 8 2 10 10 5 8 -4 10 -3 5 4 -4 7 -4 18 1 25
4 6 8 18 10 26 3 23 68 176 76 179 4 2 7 13 7 23 0 11 4 17 10 14 6 -3 7 1 4
9 -3 9 -1 16 6 16 6 0 9 4 6 9 -3 5 4 21 16 37 13 15 17 24 9 20 -11 -7 -11
-4 -1 15 18 33 32 40 50 26 13 -11 13 -10 1 5 -7 10 -18 15 -24 11 -13 -8 42
89 55 98 6 3 9 8 7 10 -1 2 1 14 5 27 7 20 18 27 39 23 5 -1 6 3 2 9 -3 6 -11
7 -17 4 -7 -5 -8 -2 -4 5 5 7 15 10 25 6 12 -5 13 -4 4 6 -9 9 -8 18 6 38 10
14 20 31 22 36 7 18 71 115 75 115 3 0 2 -5 -2 -12 -4 -7 -3 -8 5 -4 6 4 9 12
6 17 -4 5 1 19 9 31 9 12 16 18 17 13 0 -6 5 1 11 15 6 14 10 28 10 33 -1 4 2
7 7 7 4 0 21 20 37 45 15 25 34 43 40 41 8 -3 10 3 6 16 -4 17 -2 20 11 15 35
-14 51 -17 29 -6 -25 13 -24 35 1 33 9 -1 13 4 10 12 -7 18 77 116 94 109 8
-2 11 -1 8 5 -6 10 15 50 28 50 4 0 5 -5 1 -12 -4 -7 -3 -8 4 -4 6 4 9 13 5
21 -3 10 1 15 12 15 10 0 13 5 9 12 -5 7 -2 9 9 5 10 -4 14 -2 11 7 -3 7 4 20
15 31 18 15 23 16 38 4 17 -13 17 -12 0 7 -16 20 -16 22 -2 28 9 3 22 3 28 -1
7 -4 7 0 -1 9 -10 13 -10 18 -1 24 8 5 10 3 5 -7 -4 -8 -1 -6 7 4 8 9 20 17
26 17 7 0 10 4 7 8 -8 14 93 104 109 98 18 -7 20 10 3 18 -7 4 -3 4 9 2 14 -2
20 0 17 9 -7 18 78 86 93 74 8 -8 10 -4 6 13 -3 17 -2 19 5 9 8 -11 11 -9 17
8 4 14 15 21 33 22 15 0 21 3 15 6 -22 8 -14 18 17 20 21 2 28 -1 24 -9 -4 -7
-3 -8 5 -4 15 10 5 26 -17 26 -13 0 -13 2 4 15 26 19 34 19 29 -2 -3 -10 1 -4
10 14 8 17 24 34 35 38 11 3 20 11 20 16 0 6 4 8 10 4 5 -3 7 -12 4 -20 -4 -8
-11 -12 -17 -8 -6 4 -7 1 -2 -7 11 -18 36 16 28 38 -5 11 -3 13 8 6 20 -12 40
-14 33 -3 -3 5 -10 7 -15 4 -20 -13 -8 7 18 29 25 22 29 23 53 9 23 -14 24
-14 6 1 -11 9 -18 17 -15 18 2 2 18 13 36 26 18 12 36 22 42 22 5 0 12 6 15
13 3 6 4 3 3 -7 -1 -10 5 -21 13 -23 12 -4 13 -3 1 5 -11 8 -9 11 8 17 11 3
21 11 21 17 0 6 -6 6 -15 -2 -10 -9 -15 -9 -15 -1 0 10 13 15 33 12 4 0 7 3 7
9 0 5 7 6 17 3 9 -4 14 -2 10 3 -3 6 3 16 14 22 17 11 20 10 17 -4 -3 -18 28
-29 38 -13 3 5 0 8 -7 7 -7 -2 -15 5 -17 16 -2 11 0 16 7 12 6 -4 11 -2 11 3
0 6 9 11 19 11 10 0 22 7 25 16 3 9 13 14 20 11 8 -3 17 1 20 9 5 13 9 13 35
-1 36 -18 56 -20 23 -2 -19 11 -20 15 -10 30 7 9 22 18 33 20 11 1 25 6 32 10
7 4 16 0 23 -10 9 -15 10 -14 4 7 -6 22 -5 23 9 11 9 -7 14 -18 10 -24 -3 -6
-1 -7 6 -3 9 6 9 11 0 23 -10 12 -10 16 2 24 8 5 20 7 27 4 6 -2 12 0 12 4 0
15 32 22 45 11 10 -8 13 -6 11 6 0 9 5 19 12 21 6 3 12 0 12 -7 0 -6 -5 -8
-12 -4 -7 5 -8 3 -3 -6 6 -10 12 -8 24 8 9 11 41 30 71 42 78 30 99 33 106 15
4 -8 11 -15 16 -15 6 0 5 6 -2 15 -14 17 -7 31 19 38 15 3 22 -1 28 -17 4 -11
6 -24 6 -27 -1 -3 4 -6 12 -6 11 0 10 5 -2 23 -17 26 -10 46 15 43 16 -2 30 2
80 22 32 13 40 11 45 -8 3 -13 5 -11 6 6 0 13 4 21 8 18 3 -4 13 -1 21 6 13
10 15 9 9 -8 -7 -20 -7 -20 8 -1 8 11 15 16 15 12 0 -5 6 -4 13 1 23 19 67 25
67 9 0 -8 7 -17 16 -20 14 -5 15 -4 5 8 -15 17 -7 36 15 36 8 0 12 -5 9 -10
-4 -6 -11 -7 -17 -4 -7 4 -8 2 -4 -4 5 -9 12 -9 26 0 10 7 17 15 15 18 -2 3
11 7 28 9 46 4 82 9 82 11 0 2 9 4 20 5 11 2 34 5 50 8 95 17 108 17 129 0 17
-15 18 -15 8 -1 -11 14 -10 17 5 22 10 3 30 4 46 2 15 -2 30 1 33 6 3 4 9 6
14 3 5 -3 9 -1583 9 -3589z m666 3577 c107 -4 139 -9 143 -22 3 -8 0 -11 -7
-7 -7 5 -9 1 -5 -8 5 -13 9 -12 23 5 13 17 22 19 37 13 10 -6 31 -9 47 -8 15
0 27 -3 27 -7 0 -5 3 -8 8 -8 4 1 22 1 40 0 24 -1 31 -5 26 -13 -5 -8 0 -7 11
2 12 10 16 10 11 2 -6 -10 -1 -11 20 -6 23 6 26 4 21 -10 -4 -9 -2 -16 3 -16
6 0 10 5 10 10 0 15 32 8 48 -10 8 -8 11 -10 8 -3 -5 8 2 10 21 7 16 -3 29 -9
31 -14 2 -4 12 -6 22 -3 12 3 20 0 20 -6 0 -7 -4 -10 -8 -7 -5 3 -9 -2 -9 -10
0 -10 4 -11 10 -5 6 6 17 7 27 1 9 -5 22 -5 30 0 7 4 23 4 36 0 12 -5 25 -6
28 -3 3 4 6 1 6 -5 0 -7 7 -12 16 -12 11 0 14 -6 10 -22 -3 -13 -3 -17 0 -11
4 10 11 10 26 2 12 -6 18 -7 14 -1 -8 13 17 22 34 12 8 -5 15 -16 16 -25 1 -9
6 -20 10 -23 4 -4 4 1 1 10 -9 26 9 31 45 11 18 -9 38 -16 45 -15 6 1 15 -3
19 -9 5 -9 2 -10 -10 -6 -10 4 -15 3 -11 -3 3 -6 17 -7 30 -4 13 3 33 -1 47
-10 14 -9 28 -13 31 -9 4 3 7 1 7 -5 0 -7 9 -12 21 -12 11 0 18 -4 15 -9 -3
-5 1 -12 10 -15 8 -3 13 -2 10 3 -4 5 3 7 14 4 11 -3 17 -10 13 -16 -4 -6 0
-8 9 -5 8 4 21 2 29 -3 11 -7 10 -11 -6 -25 -17 -13 -15 -13 9 1 28 17 29 17
22 -1 -6 -15 -5 -16 5 -7 9 9 19 8 43 -4 17 -10 36 -18 43 -19 7 -1 25 -11 41
-23 16 -11 31 -18 34 -15 3 2 11 -2 18 -11 7 -8 18 -15 25 -15 7 0 25 -10 41
-22 16 -13 31 -23 34 -23 3 0 4 -4 2 -9 -2 -5 4 -6 11 -3 19 7 37 -11 30 -29
-3 -8 0 -14 7 -14 6 0 8 5 4 11 -4 7 -3 10 2 7 44 -20 64 -33 64 -40 0 -5 5
-6 10 -3 6 3 10 1 10 -4 0 -6 5 -11 11 -11 18 0 89 -54 89 -67 0 -7 2 -13 4
-13 2 0 13 -3 23 -6 16 -6 16 -5 -2 10 -32 28 6 5 48 -28 20 -16 37 -34 37
-40 0 -5 -7 -1 -15 10 -8 10 -15 15 -15 9 0 -5 -4 -4 -9 3 -7 11 -9 11 -14 -1
-4 -10 0 -14 11 -13 9 2 23 -4 30 -13 10 -12 15 -13 18 -4 9 21 84 -46 85 -76
2 -24 2 -24 6 -3 4 18 7 20 17 10 7 -7 27 -24 44 -38 18 -14 32 -30 32 -37 0
-7 7 -10 15 -7 11 5 13 2 8 -12 -4 -12 -3 -15 5 -10 7 4 12 3 12 -2 0 -5 10
-12 21 -15 14 -4 20 -11 16 -21 -4 -10 -1 -13 9 -9 17 6 19 -13 2 -21 -7 -3
-3 -3 9 0 20 5 63 -27 63 -47 0 -4 9 -11 20 -14 11 -4 20 -15 20 -26 0 -11 5
-17 10 -14 6 3 10 1 10 -6 0 -7 3 -10 6 -7 3 3 26 -17 52 -44 26 -28 45 -52
42 -53 -3 -2 12 -18 32 -35 26 -23 37 -39 34 -54 -2 -11 -1 -16 1 -9 4 12 33
7 33 -7 0 -4 -10 -12 -22 -19 -18 -9 -19 -10 -3 -6 35 11 40 10 39 -7 -1 -11
4 -15 15 -11 12 3 11 0 -4 -13 -19 -16 -19 -16 -1 -10 13 4 25 0 38 -14 10
-11 16 -20 13 -20 -4 0 1 -7 9 -16 9 -8 13 -20 10 -26 -4 -6 -2 -8 3 -5 6 4
16 0 23 -8 7 -8 9 -15 4 -15 -5 0 2 -7 14 -16 12 -8 22 -22 22 -30 0 -8 3 -14
8 -14 4 0 13 -9 20 -21 11 -17 11 -24 0 -37 -11 -15 -11 -15 3 -4 13 10 19 9
30 -5 12 -15 12 -16 -4 -10 -11 4 -16 3 -12 -3 3 -6 13 -10 21 -10 8 0 14 -7
14 -15 0 -8 5 -15 11 -15 8 0 7 -5 -1 -15 -11 -13 -10 -14 4 -9 12 5 19 0 23
-15 3 -11 10 -21 16 -21 6 0 8 -3 4 -6 -3 -3 3 -16 14 -27 11 -12 17 -27 15
-34 -3 -8 2 -13 12 -13 15 0 15 -2 2 -10 -13 -8 -12 -10 3 -10 10 0 15 -4 12
-10 -3 -5 -1 -10 4 -10 6 0 11 -7 11 -17 0 -14 -3 -14 -22 3 -14 12 -18 13
-10 3 6 -9 9 -18 6 -22 -3 -3 2 -4 13 -3 23 4 43 -12 43 -34 0 -10 -6 -21 -12
-24 -7 -3 -4 -4 7 -1 16 4 24 -3 35 -28 7 -17 13 -38 13 -44 -1 -7 3 -13 8
-13 10 0 51 -86 52 -107 0 -7 4 -13 8 -13 4 0 9 -7 12 -14 4 -11 1 -13 -11
-10 -9 3 -6 -1 8 -9 14 -9 24 -18 23 -21 -1 -3 5 -22 13 -41 8 -20 12 -40 9
-45 -3 -4 -1 -10 4 -12 5 -1 11 -10 13 -18 2 -8 7 -18 12 -22 6 -4 4 -13 -4
-22 -11 -14 -10 -16 4 -10 21 8 21 -12 -1 -26 -16 -10 -16 -10 3 -5 17 4 23
-1 33 -35 6 -22 9 -46 5 -52 -4 -7 -3 -8 4 -4 11 7 35 -60 27 -75 -3 -4 -1 -9
5 -11 5 -1 11 -12 13 -23 1 -11 6 -26 11 -33 4 -7 5 -19 2 -27 -3 -8 0 -15 6
-15 7 0 3 -7 -8 -15 -13 -10 -14 -13 -3 -10 12 5 19 -5 29 -39 7 -25 10 -52 6
-61 -4 -10 -2 -14 6 -9 7 5 9 -1 6 -19 -3 -16 -1 -24 5 -20 5 3 7 0 5 -8 -3
-8 -12 -13 -19 -11 -8 2 -10 0 -6 -5 5 -4 14 -8 20 -8 7 0 12 -11 12 -25 0
-14 3 -27 6 -30 4 -3 9 -27 13 -55 3 -27 8 -63 11 -78 4 -17 2 -26 -4 -23 -5
4 -13 2 -16 -4 -4 -6 -3 -10 2 -9 33 6 39 -14 13 -47 -14 -17 -14 -18 3 -5 15
12 17 10 19 -25 0 -22 3 -50 4 -64 2 -14 6 -54 8 -89 3 -35 7 -70 10 -78 3 -7
0 -13 -7 -13 -8 0 -8 -3 -2 -8 15 -10 16 -223 1 -215 -6 3 -5 0 2 -8 16 -17
17 -73 0 -63 -7 5 -8 3 -3 -7 5 -7 9 -27 8 -44 -3 -108 -8 -151 -17 -157 -7
-5 -7 -8 2 -8 7 0 10 -5 6 -11 -4 -7 -8 -32 -9 -58 -2 -25 -4 -47 -5 -48 -1
-2 -4 -12 -5 -23 -1 -11 -3 -23 -5 -27 -1 -5 -1 -25 0 -47 1 -23 -2 -36 -8
-32 -6 4 -8 -2 -5 -15 4 -12 0 -25 -8 -30 -11 -7 -11 -9 -1 -9 8 0 10 -5 6
-12 -5 -7 -9 -19 -9 -28 -7 -72 -18 -119 -27 -113 -6 3 -8 1 -5 -4 6 -9 -12
-116 -28 -168 -1 -5 -3 -14 -5 -20 -1 -5 -8 -25 -15 -43 -8 -17 -11 -32 -8
-32 4 0 -2 -7 -13 -16 -10 -8 -13 -12 -5 -8 16 8 15 5 -46 -163 -28 -75 -49
-120 -56 -116 -6 4 -7 1 -2 -6 13 -22 -123 -318 -140 -304 -4 5 -5 3 -1 -4 6
-11 -9 -48 -24 -63 -3 -3 -21 -36 -40 -73 -19 -38 -42 -76 -50 -85 -8 -9 -20
-27 -25 -40 l-10 -22 -31 22 c-90 66 -163 131 -157 140 3 6 2 8 -4 5 -14 -9
-55 22 -47 35 4 6 3 8 -3 5 -11 -7 -103 60 -103 74 0 5 -6 9 -12 9 -7 0 -31
17 -53 38 -23 20 -59 50 -80 66 -22 16 -47 37 -56 45 -9 9 -30 27 -49 41 -39
30 -70 54 -90 73 -8 7 -73 60 -145 118 -147 117 -172 137 -195 160 -9 8 -24
19 -34 22 -9 4 -14 12 -11 17 4 6 2 9 -3 8 -8 -3 -197 144 -257 199 -11 10
-40 34 -65 53 -25 19 -50 39 -56 45 -6 5 -30 26 -54 45 -24 19 -72 58 -106 85
-34 28 -78 64 -99 80 -21 17 -50 40 -64 52 -65 56 -75 63 -84 63 -5 0 -6 7 -3
16 3 9 2 12 -4 9 -6 -4 -26 6 -44 22 -18 15 -42 35 -52 43 -78 61 -158 127
-178 145 -6 6 -31 26 -56 45 -25 19 -52 42 -61 52 -9 10 -21 18 -27 18 -6 0
-12 3 -14 8 -1 4 -24 24 -50 45 -26 21 -53 43 -60 50 -7 7 -29 24 -48 38 -19
15 -45 35 -57 45 -31 27 -49 42 -139 115 l-82 65 0 1592 c0 1137 3 1590 10
1586 7 -5 8 -2 2 7 -10 16 -16 137 -6 123 4 -5 30 -10 57 -11z m605 -113 c0
-5 -7 -7 -15 -4 -8 4 -15 8 -15 10 0 2 7 4 15 4 8 0 15 -4 15 -10z m140 -40
c0 -5 -4 -10 -10 -10 -5 0 -10 5 -10 10 0 6 5 10 10 10 6 0 10 -4 10 -10z
m-743 -3984 c-6 -15 12 -48 22 -41 5 2 14 -2 21 -10 7 -8 17 -15 23 -15 6 0 2
7 -9 15 -10 8 -15 15 -11 15 17 0 66 -44 60 -54 -3 -6 -3 -8 2 -4 8 7 42 -13
80 -49 11 -10 39 -33 63 -51 23 -19 39 -39 35 -45 -4 -7 0 -8 11 -4 13 5 19 1
23 -13 3 -11 9 -17 14 -14 5 3 9 0 9 -6 0 -6 5 -8 10 -5 9 6 14 -7 11 -27 0
-4 6 -5 15 -1 10 4 17 -2 21 -16 3 -11 10 -21 15 -21 5 0 6 5 2 12 -13 20 54
-31 76 -59 11 -14 20 -23 20 -19 0 4 20 -9 45 -30 25 -20 45 -41 45 -46 0 -5
-4 -7 -9 -3 -5 3 -12 1 -15 -4 -7 -10 13 -9 30 2 17 10 46 -27 38 -49 -5 -18
-5 -18 6 -1 11 17 15 16 48 -20 19 -21 32 -32 27 -24 -5 10 -4 12 4 7 6 -4 9
-12 6 -17 -4 -5 1 -9 9 -9 8 0 33 -17 56 -38 22 -22 40 -37 40 -34 0 3 9 -3
20 -13 11 -10 17 -22 14 -26 -3 -5 1 -6 9 -3 9 3 22 -4 31 -18 9 -12 16 -19
16 -14 0 5 8 -1 19 -12 10 -12 23 -22 30 -22 6 0 11 -5 11 -11 0 -5 -6 -7 -12
-3 -10 6 -10 5 -1 -8 7 -8 9 -19 5 -23 -4 -5 -1 -5 6 -1 7 4 10 12 7 17 -12
18 11 8 40 -19 17 -15 47 -40 68 -55 20 -15 37 -35 37 -43 0 -7 5 -14 11 -14
5 0 7 6 3 13 -3 6 5 1 19 -13 13 -14 36 -33 51 -44 14 -10 23 -23 19 -29 -4
-6 0 -8 9 -4 10 3 24 -3 35 -15 10 -12 12 -18 4 -13 -10 6 -12 4 -7 -4 5 -7
13 -10 20 -8 7 3 22 -6 34 -18 19 -20 21 -25 8 -32 -13 -7 -13 -10 4 -21 12
-7 20 -8 20 -2 0 5 -5 10 -12 10 -9 0 -9 3 0 12 9 9 15 9 20 2 4 -6 33 -30 65
-53 31 -24 57 -47 57 -51 0 -3 11 -13 25 -20 13 -7 22 -17 19 -22 -3 -4 2 -8
11 -8 8 0 29 -13 47 -30 17 -16 35 -30 40 -30 5 0 6 -4 3 -10 -3 -6 1 -10 10
-10 9 0 33 -17 54 -37 20 -21 39 -38 42 -39 2 0 14 -7 26 -14 16 -10 19 -18
12 -26 -8 -9 -5 -11 10 -7 12 3 21 1 21 -6 0 -6 5 -11 10 -11 6 0 25 -15 42
-32 18 -18 35 -33 38 -32 11 2 70 -52 70 -63 0 -7 8 -13 18 -13 19 -1 82 -54
82 -70 0 -6 4 -9 9 -6 5 3 12 -1 15 -9 3 -8 9 -15 13 -14 20 3 34 -2 28 -10
-3 -5 4 -12 15 -16 11 -4 18 -11 15 -16 -4 -5 1 -9 9 -9 19 0 20 -11 4 -30 -7
-8 -4 -7 8 3 19 16 23 16 34 2 7 -8 9 -15 4 -15 -5 -1 6 -7 25 -15 32 -14 33
-16 18 -38 -8 -12 -20 -21 -26 -19 -6 1 -10 -4 -9 -10 2 -7 -3 -12 -10 -10 -8
1 -11 -2 -7 -7 7 -12 -165 -182 -177 -175 -5 3 -7 1 -6 -4 3 -11 -50 -62 -131
-125 -30 -23 -69 -54 -85 -70 -17 -15 -36 -25 -43 -23 -7 3 -12 0 -10 -6 1 -5
-54 -48 -123 -94 -69 -46 -130 -88 -137 -94 -7 -5 -16 -10 -21 -10 -5 0 -21
-9 -35 -20 -79 -63 -567 -286 -687 -315 -8 -2 -28 -8 -43 -14 -16 -6 -33 -9
-38 -5 -5 3 -9 1 -9 -5 0 -5 -15 -12 -32 -16 -18 -3 -53 -13 -78 -20 -25 -8
-58 -17 -75 -20 -16 -2 -45 -9 -64 -15 -19 -5 -37 -8 -39 -5 -3 3 -10 1 -16
-4 -6 -5 -42 -14 -81 -20 -38 -6 -81 -13 -95 -15 -47 -9 -95 -15 -160 -22 -36
-3 -67 -8 -69 -10 -2 -2 -10 4 -18 14 -8 9 -12 12 -9 5 4 -6 2 -14 -4 -18 -6
-4 -9 483 -9 1454 1 1351 2 1462 17 1472 15 9 15 10 1 6 -14 -5 -16 5 -15 72
l1 78 33 -25 c18 -14 31 -30 29 -36z m27 -12 c20 -8 21 -21 1 -21 -8 0 -16 6
-19 14 -6 15 -4 15 18 7z m583 -3520 c-3 -3 -12 -4 -19 -1 -8 3 -5 6 6 6 11 1
17 -2 13 -5z"/>
<path d="M3995 7949 c-4 -6 -5 -12 -2 -15 2 -3 7 2 10 11 7 17 1 20 -8 4z"/>
<path d="M3930 7939 c0 -5 5 -7 10 -4 6 3 10 8 10 11 0 2 -4 4 -10 4 -5 0 -10
-5 -10 -11z"/>
<path d="M3967 7929 c4 -13 8 -18 11 -10 2 7 -1 18 -6 23 -8 8 -9 4 -5 -13z"/>
<path d="M3864 7917 c1 -22 3 -25 12 -12 6 8 15 11 19 7 5 -4 5 -1 1 6 -4 7
-11 10 -16 7 -4 -3 -10 1 -13 7 -2 7 -4 1 -3 -15z"/>
<path d="M3773 7915 c0 -8 4 -15 9 -15 4 0 8 4 8 9 0 6 -4 12 -8 15 -5 3 -9
-1 -9 -9z"/>
<path d="M3820 7920 c0 -6 7 -10 15 -10 8 0 15 2 15 4 0 2 -7 6 -15 10 -8 3
-15 1 -15 -4z"/>
<path d="M3716 7907 c3 -10 9 -15 12 -12 3 3 0 11 -7 18 -10 9 -11 8 -5 -6z"/>
<path d="M3990 7909 c0 -5 5 -7 10 -4 6 3 10 8 10 11 0 2 -4 4 -10 4 -5 0 -10
-5 -10 -11z"/>
<path d="M3670 7907 c0 -2 6 -10 14 -16 11 -9 16 -9 22 1 4 7 4 10 -1 6 -4 -4
-14 -3 -22 3 -7 6 -13 9 -13 6z"/>
<path d="M3630 7885 c0 -8 4 -15 10 -15 5 0 7 7 4 15 -4 8 -8 15 -10 15 -2 0
-4 -7 -4 -15z"/>
<path d="M3748 7883 c7 -3 16 -2 19 1 4 3 -2 6 -13 5 -11 0 -14 -3 -6 -6z"/>
<path d="M3910 7876 c7 -7 13 -7 20 0 6 6 3 10 -10 10 -13 0 -16 -4 -10 -10z"/>
<path d="M3500 7871 c-8 -6 -18 -7 -24 -4 -5 3 -6 1 -2 -5 5 -9 13 -9 27 -2
10 6 19 13 19 15 0 7 -3 6 -20 -4z"/>
<path d="M3595 7860 c27 -12 43 -12 25 0 -8 5 -22 9 -30 9 -10 0 -8 -3 5 -9z"/>
<path d="M3660 7860 c-9 -6 -10 -10 -3 -10 6 0 15 5 18 10 8 12 4 12 -15 0z"/>
<path d="M3690 7859 c0 -5 5 -7 10 -4 6 3 10 8 10 11 0 2 -4 4 -10 4 -5 0 -10
-5 -10 -11z"/>
<path d="M3445 7840 c-3 -6 1 -7 9 -4 18 7 21 14 7 14 -6 0 -13 -4 -16 -10z"/>
<path d="M3570 7840 c0 -5 5 -10 10 -10 6 0 10 5 10 10 0 6 -4 10 -10 10 -5 0
-10 -4 -10 -10z"/>
<path d="M3340 7825 c-9 -10 -9 -15 -1 -15 6 0 11 6 11 13 0 8 4 7 10 -3 6 -9
10 -10 10 -3 0 19 -17 24 -30 8z"/>
<path d="M3415 7819 c-4 -6 -5 -12 -2 -15 2 -3 7 2 10 11 7 17 1 20 -8 4z"/>
<path d="M3311 7804 c0 -11 3 -14 6 -6 3 7 2 16 -1 19 -3 4 -6 -2 -5 -13z"/>
<path d="M3250 7795 c0 -8 2 -15 4 -15 2 0 6 7 10 15 3 8 1 15 -4 15 -6 0 -10
-7 -10 -15z"/>
<path d="M3190 7782 c0 -5 7 -9 15 -9 8 0 12 4 9 9 -3 4 -9 8 -15 8 -5 0 -9
-4 -9 -8z"/>
<path d="M3370 7779 c0 -5 5 -7 10 -4 6 3 10 8 10 11 0 2 -4 4 -10 4 -5 0 -10
-5 -10 -11z"/>
<path d="M3127 7753 c3 -7 6 -13 8 -13 2 0 5 6 8 13 3 8 -1 14 -8 14 -7 0 -11
-6 -8 -14z"/>
<path d="M3080 7743 c-14 -7 -18 -13 -10 -13 17 0 47 17 40 23 -3 2 -16 -2
-30 -10z"/>
<path d="M3150 7745 c0 -5 5 -17 10 -25 5 -8 10 -10 10 -5 0 6 -5 17 -10 25
-5 8 -10 11 -10 5z"/>
<path d="M3195 7731 c-3 -5 -2 -12 3 -15 5 -3 9 1 9 9 0 17 -3 19 -12 6z"/>
<path d="M3020 7719 c0 -4 6 -9 13 -12 8 -3 14 0 14 7 0 7 -6 13 -14 13 -7 0
-13 -4 -13 -8z"/>
<path d="M3106 7718 c3 -5 10 -6 15 -3 13 9 11 12 -6 12 -8 0 -12 -4 -9 -9z"/>
<path d="M3135 7711 c-3 -5 -2 -12 3 -15 5 -3 9 1 9 9 0 17 -3 19 -12 6z"/>
<path d="M2996 7695 c-9 -26 -7 -32 5 -12 6 10 9 21 6 23 -2 3 -7 -2 -11 -11z"/>
<path d="M3068 7703 c7 -3 16 -2 19 1 4 3 -2 6 -13 5 -11 0 -14 -3 -6 -6z"/>
<path d="M2926 7677 c3 -10 9 -15 12 -12 3 3 0 11 -7 18 -10 9 -11 8 -5 -6z"/>
<path d="M2870 7662 c0 -5 7 -9 15 -9 8 0 12 4 9 9 -3 4 -9 8 -15 8 -5 0 -9
-4 -9 -8z"/>
<path d="M2786 7615 c4 -8 11 -15 16 -15 6 0 5 6 -2 15 -7 8 -14 15 -16 15 -2
0 -1 -7 2 -15z"/>
<path d="M2756 7605 c4 -8 8 -15 10 -15 2 0 4 7 4 15 0 8 -4 15 -10 15 -5 0
-7 -7 -4 -15z"/>
<path d="M2875 7609 c-4 -6 -5 -12 -2 -15 2 -3 7 2 10 11 7 17 1 20 -8 4z"/>
<path d="M2701 7573 c-1 -6 4 -15 9 -18 6 -4 7 -12 4 -18 -4 -7 -3 -8 1 -4 12
10 16 39 5 32 -5 -3 -11 1 -13 7 -4 9 -6 10 -6 1z"/>
<path d="M2661 7563 c1 -5 0 -10 -1 -13 -6 -16 -7 -41 -2 -35 4 4 8 11 8 16 1
5 2 12 3 15 0 4 9 0 19 -7 14 -11 13 -10 -2 9 -20 23 -27 27 -25 15z"/>
<path d="M2625 7531 c-3 -5 -2 -12 3 -15 5 -3 9 1 9 9 0 17 -3 19 -12 6z"/>
<path d="M3990 7519 c0 -5 5 -7 10 -4 6 3 10 8 10 11 0 2 -4 4 -10 4 -5 0 -10
-5 -10 -11z"/>
<path d="M2555 7480 c-3 -5 -1 -10 4 -10 6 0 11 5 11 10 0 6 -2 10 -4 10 -3 0
-8 -4 -11 -10z"/>
<path d="M2506 7438 c3 -5 10 -6 15 -3 13 9 11 12 -6 12 -8 0 -12 -4 -9 -9z"/>
<path d="M2419 7423 c-13 -16 -12 -17 4 -4 16 13 21 21 13 21 -2 0 -10 -8 -17
-17z"/>
<path d="M2354 7376 c4 -10 1 -26 -6 -35 -11 -14 -10 -14 6 0 15 14 16 20 6
35 -11 18 -11 18 -6 0z"/>
<path d="M2330 7300 c0 -5 5 -10 11 -10 5 0 7 5 4 10 -3 6 -8 10 -11 10 -2 0
-4 -4 -4 -10z"/>
<path d="M2230 7291 c0 -5 5 -13 10 -16 6 -3 10 -2 10 4 0 5 -4 13 -10 16 -5
3 -10 2 -10 -4z"/>
<path d="M2216 7261 c-3 -5 1 -14 8 -20 10 -9 16 -9 21 -1 4 6 1 9 -7 8 -7 -2
-12 3 -10 10 2 14 -4 16 -12 3z"/>
<path d="M3990 7199 c0 -5 5 -7 10 -4 6 3 10 8 10 11 0 2 -4 4 -10 4 -5 0 -10
-5 -10 -11z"/>
<path d="M2096 7181 c-3 -4 4 -17 17 -27 l22 -19 -20 24 c-18 22 -18 24 -2 18
11 -4 16 -3 12 3 -8 12 -22 13 -29 1z"/>
<path d="M2036 7151 c-3 -5 1 -11 9 -14 9 -4 12 -1 8 9 -6 16 -10 17 -17 5z"/>
<path d="M1989 7109 l-24 -20 26 15 c14 9 29 13 32 9 4 -3 7 -1 7 5 0 18 -15
15 -41 -9z"/>
<path d="M1986 7058 c3 -4 9 -8 15 -8 5 0 9 4 9 8 0 5 -7 9 -15 9 -8 0 -12 -4
-9 -9z"/>
<path d="M1906 7002 c-3 -5 1 -9 9 -9 8 0 15 4 15 9 0 4 -4 8 -9 8 -6 0 -12
-4 -15 -8z"/>
<path d="M1845 6979 c-4 -6 -5 -12 -2 -15 2 -3 7 2 10 11 7 17 1 20 -8 4z"/>
<path d="M1835 6939 c-4 -6 -5 -12 -2 -15 2 -3 7 2 10 11 7 17 1 20 -8 4z"/>
<path d="M1811 6914 c0 -11 3 -14 6 -6 3 7 2 16 -1 19 -3 4 -6 -2 -5 -13z"/>
<path d="M1730 6860 c0 -5 5 -10 11 -10 5 0 7 5 4 10 -3 6 -8 10 -11 10 -2 0
-4 -4 -4 -10z"/>
<path d="M1755 6829 c-4 -6 -5 -12 -2 -15 2 -3 7 2 10 11 7 17 1 20 -8 4z"/>
<path d="M1696 6793 c-6 -14 -5 -15 5 -6 7 7 10 15 7 18 -3 3 -9 -2 -12 -12z"/>
<path d="M1595 6720 c-3 -5 -1 -10 4 -10 6 0 11 5 11 10 0 6 -2 10 -4 10 -3 0
-8 -4 -11 -10z"/>
<path d="M1625 6700 c-3 -6 1 -7 9 -4 18 7 21 14 7 14 -6 0 -13 -4 -16 -10z"/>
<path d="M1581 6684 c0 -11 3 -14 6 -6 3 7 2 16 -1 19 -3 4 -6 -2 -5 -13z"/>
<path d="M1560 6660 c8 -5 20 -10 25 -10 6 0 3 5 -5 10 -8 5 -19 10 -25 10 -5
0 -3 -5 5 -10z"/>
<path d="M1530 6639 c0 -5 5 -7 10 -4 6 3 10 8 10 11 0 2 -4 4 -10 4 -5 0 -10
-5 -10 -11z"/>
<path d="M1549 6623 c-13 -16 -12 -17 4 -4 9 7 17 15 17 17 0 8 -8 3 -21 -13z"/>
<path d="M1450 6530 c-9 -6 -10 -10 -3 -10 6 0 15 5 18 10 8 12 4 12 -15 0z"/>
<path d="M1426 6502 c-2 -4 4 -8 14 -8 10 0 16 4 14 8 -3 4 -9 8 -14 8 -5 0
-11 -4 -14 -8z"/>
<path d="M1396 6442 c-3 -5 1 -9 9 -9 8 0 12 4 9 9 -3 4 -7 8 -9 8 -2 0 -6 -4
-9 -8z"/>
<path d="M1370 6379 c0 -5 5 -7 10 -4 6 3 10 8 10 11 0 2 -4 4 -10 4 -5 0 -10
-5 -10 -11z"/>
<path d="M1315 6330 c-3 -5 -3 -10 1 -10 4 0 -1 -7 -12 -16 -18 -15 -18 -15 0
-6 11 5 21 17 22 26 3 18 -2 21 -11 6z"/>
<path d="M1266 6238 c3 -5 10 -6 15 -3 13 9 11 12 -6 12 -8 0 -12 -4 -9 -9z"/>
<path d="M3990 6239 c0 -5 5 -7 10 -4 6 3 10 8 10 11 0 2 -4 4 -10 4 -5 0 -10
-5 -10 -11z"/>
<path d="M1250 6180 c0 -5 5 -10 11 -10 5 0 7 5 4 10 -3 6 -8 10 -11 10 -2 0
-4 -4 -4 -10z"/>
<path d="M1153 6053 c0 -9 4 -10 14 -2 7 6 13 12 13 14 0 1 -6 2 -13 2 -8 0
-14 -6 -14 -14z"/>
<path d="M1095 5960 c-3 -5 -1 -10 4 -10 6 0 11 5 11 10 0 6 -2 10 -4 10 -3 0
-8 -4 -11 -10z"/>
<path d="M3990 5919 c0 -5 5 -7 10 -4 6 3 10 8 10 11 0 2 -4 4 -10 4 -5 0 -10
-5 -10 -11z"/>
<path d="M1090 5899 c0 -5 5 -7 10 -4 6 3 10 8 10 11 0 2 -4 4 -10 4 -5 0 -10
-5 -10 -11z"/>
<path d="M1046 5818 c3 -5 10 -6 15 -3 13 9 11 12 -6 12 -8 0 -12 -4 -9 -9z"/>
<path d="M1011 5773 c-1 -17 16 -25 25 -12 4 7 3 9 -4 5 -5 -3 -13 0 -15 6 -4
9 -6 10 -6 1z"/>
<path d="M975 5679 c-4 -6 -5 -12 -2 -15 2 -3 7 2 10 11 7 17 1 20 -8 4z"/>
<path d="M920 5500 c-12 -7 -10 -9 7 -7 12 0 19 5 17 9 -6 10 -6 10 -24 -2z"/>
<path d="M907 5459 c7 -7 15 -10 18 -7 3 3 -2 9 -12 12 -14 6 -15 5 -6 -5z"/>
<path d="M825 5200 c-3 -6 1 -7 9 -4 18 7 21 14 7 14 -6 0 -13 -4 -16 -10z"/>
<path d="M810 5099 c0 -5 5 -7 10 -4 6 3 10 8 10 11 0 2 -4 4 -10 4 -5 0 -10
-5 -10 -11z"/>
<path d="M3990 4959 c0 -5 5 -7 10 -4 6 3 10 8 10 11 0 2 -4 4 -10 4 -5 0 -10
-5 -10 -11z"/>
<path d="M790 4941 c0 -6 4 -13 10 -16 6 -3 7 1 4 9 -7 18 -14 21 -14 7z"/>
<path d="M3990 4639 c0 -5 5 -7 10 -4 6 3 10 8 10 11 0 2 -4 4 -10 4 -5 0 -10
-5 -10 -11z"/>
<path d="M750 4561 c0 -6 4 -13 10 -16 6 -3 7 1 4 9 -7 18 -14 21 -14 7z"/>
<path d="M3990 3679 c0 -5 5 -7 10 -4 6 3 10 8 10 11 0 2 -4 4 -10 4 -5 0 -10
-5 -10 -11z"/>
<path d="M3990 2719 c0 -5 5 -7 10 -4 6 3 10 8 10 11 0 2 -4 4 -10 4 -5 0 -10
-5 -10 -11z"/>
<path d="M3990 1759 c0 -5 5 -7 10 -4 6 3 10 8 10 11 0 2 -4 4 -10 4 -5 0 -10
-5 -10 -11z"/>
<path d="M3986 882 c-3 -5 1 -9 9 -9 8 0 12 4 9 9 -3 4 -7 8 -9 8 -2 0 -6 -4
-9 -8z"/>
<path d="M4636 7934 c-8 -20 0 -32 14 -18 5 5 5 15 1 22 -6 11 -10 10 -15 -4z"/>
<path d="M4670 7939 c0 -5 5 -7 10 -4 6 3 10 8 10 11 0 2 -4 4 -10 4 -5 0 -10
-5 -10 -11z"/>
<path d="M4696 7931 c-9 -10 -16 -22 -16 -27 0 -4 7 1 15 13 9 13 22 20 30 17
8 -4 15 -4 15 -1 0 15 -30 13 -44 -2z"/>
<path d="M4756 7927 c-16 -12 -16 -14 -3 -14 9 0 18 6 21 14 3 7 4 13 3 13 -2
0 -11 -6 -21 -13z"/>
<path d="M4855 7920 c-3 -5 -4 -14 -1 -18 8 -14 49 -7 54 9 2 8 0 10 -5 4 -13
-16 -45 -15 -39 1 6 16 0 19 -9 4z"/>
<path d="M4706 7904 c-5 -14 -4 -15 9 -4 17 14 19 20 6 20 -5 0 -12 -7 -15
-16z"/>
<path d="M4920 7916 c0 -3 9 -10 19 -16 15 -7 22 -7 27 2 4 7 4 10 -1 6 -4 -4
-16 -3 -26 3 -11 5 -19 7 -19 5z"/>
<path d="M4659 7908 c-7 -25 -4 -34 13 -34 17 0 17 2 4 12 -9 6 -13 14 -9 17
3 4 3 7 0 7 -4 0 -7 -1 -8 -2z"/>
<path d="M4788 7903 c7 -3 16 -2 19 1 4 3 -2 6 -13 5 -11 0 -14 -3 -6 -6z"/>
<path d="M4750 7896 c0 -2 8 -10 18 -17 15 -13 16 -12 3 4 -13 16 -21 21 -21
13z"/>
<path d="M4999 7893 c0 -5 -2 -18 -3 -30 -1 -12 1 -20 4 -18 8 5 11 55 4 55
-2 0 -4 -3 -5 -7z"/>
<path d="M4913 7875 c0 -8 4 -12 9 -9 4 3 8 9 8 15 0 5 -4 9 -8 9 -5 0 -9 -7
-9 -15z"/>
<path d="M5055 7880 c-3 -5 -1 -10 4 -10 6 0 11 5 11 10 0 6 -2 10 -4 10 -3 0
-8 -4 -11 -10z"/>
<path d="M4855 7871 c-3 -5 -2 -12 3 -15 5 -3 9 1 9 9 0 17 -3 19 -12 6z"/>
<path d="M5110 7860 c0 -5 3 -9 8 -8 4 1 18 -4 32 -11 l25 -12 -25 20 c-28 23
-40 26 -40 11z"/>
<path d="M5074 7849 c1 -7 10 -13 19 -15 9 -1 15 2 11 7 -3 5 -9 7 -14 4 -4
-3 -11 0 -13 5 -3 6 -4 5 -3 -1z"/>
<path d="M5190 7851 c0 -10 19 -25 25 -20 1 2 -3 10 -11 17 -8 7 -14 8 -14 3z"/>
<path d="M5257 7809 c7 -7 15 -10 18 -7 3 3 -2 9 -12 12 -14 6 -15 5 -6 -5z"/>
<path d="M5300 7810 c-8 -5 -12 -12 -9 -15 4 -3 12 1 19 10 14 17 11 19 -10 5z"/>
<path d="M5346 7805 c10 -8 23 -15 28 -15 6 0 1 7 -10 15 -10 8 -23 15 -28 15
-6 0 -1 -7 10 -15z"/>
<path d="M5315 7780 c3 -5 8 -10 11 -10 2 0 4 5 4 10 0 6 -5 10 -11 10 -5 0
-7 -4 -4 -10z"/>
<path d="M5450 7780 c0 -5 5 -10 11 -10 5 0 7 5 4 10 -3 6 -8 10 -11 10 -2 0
-4 -4 -4 -10z"/>
<path d="M5295 7761 c-3 -5 -2 -12 3 -15 5 -3 9 1 9 9 0 17 -3 19 -12 6z"/>
<path d="M5406 7762 c-3 -5 1 -9 9 -9 8 0 12 4 9 9 -3 4 -7 8 -9 8 -2 0 -6 -4
-9 -8z"/>
<path d="M5513 7755 c0 -7 6 -11 14 -8 7 3 13 6 13 8 0 2 -6 5 -13 8 -8 3 -14
-1 -14 -8z"/>
<path d="M5550 7740 c0 -5 5 -10 11 -10 5 0 7 5 4 10 -3 6 -8 10 -11 10 -2 0
-4 -4 -4 -10z"/>
<path d="M5430 7720 c0 -5 5 -10 11 -10 5 0 7 5 4 10 -3 6 -8 10 -11 10 -2 0
-4 -4 -4 -10z"/>
<path d="M5510 7726 c0 -2 9 -6 20 -9 11 -3 18 -1 14 4 -5 9 -34 13 -34 5z"/>
<path d="M5620 7710 c-9 -6 -10 -10 -3 -10 6 0 15 5 18 10 8 12 4 12 -15 0z"/>
<path d="M5657 7699 c7 -7 15 -10 18 -7 3 3 -2 9 -12 12 -14 6 -15 5 -6 -5z"/>
<path d="M5616 7678 c3 -4 11 -5 19 -1 21 7 19 12 -4 10 -11 0 -18 -5 -15 -9z"/>
<path d="M5690 7680 c0 -5 5 -10 11 -10 5 0 7 5 4 10 -3 6 -8 10 -11 10 -2 0
-4 -4 -4 -10z"/>
<path d="M5715 7650 c3 -5 8 -10 11 -10 2 0 4 5 4 10 0 6 -5 10 -11 10 -5 0
-7 -4 -4 -10z"/>
<path d="M5865 7600 c3 -5 11 -10 16 -10 6 0 7 5 4 10 -3 6 -11 10 -16 10 -6
0 -7 -4 -4 -10z"/>
<path d="M5893 7575 c-3 -9 -3 -18 -1 -21 3 -3 8 4 11 16 6 23 -1 27 -10 5z"/>
<path d="M5946 7564 c-4 -9 -4 -19 -1 -22 3 -3 5 0 5 7 0 7 4 9 10 6 6 -3 7 1
4 9 -8 20 -10 20 -18 0z"/>
<path d="M5979 7548 c-7 -23 -4 -35 7 -35 8 0 14 4 14 9 0 4 -5 8 -11 8 -5 0
-7 5 -4 10 3 6 4 10 1 10 -3 0 -6 -1 -7 -2z"/>
<path d="M6013 7520 c0 -23 3 -28 9 -16 5 9 5 23 0 32 -6 12 -9 7 -9 -16z"/>
<path d="M6060 7509 c0 -5 -4 -8 -9 -4 -5 3 -12 1 -15 -4 -4 -5 2 -8 11 -7 15
3 33 26 19 26 -3 0 -6 -5 -6 -11z"/>
<path d="M6088 7483 c5 -21 7 -23 10 -9 2 10 0 22 -6 28 -6 6 -7 0 -4 -19z"/>
<path d="M6115 7450 c-4 -6 -11 -7 -17 -4 -7 4 -8 2 -4 -5 6 -9 11 -9 22 0 14
11 18 19 10 19 -3 0 -8 -5 -11 -10z"/>
<path d="M6199 7408 c6 -7 15 -13 19 -14 19 -2 41 -17 37 -24 -3 -5 -1 -11 4
-14 5 -4 8 1 7 9 -3 18 -41 47 -50 38 -3 -3 -6 -1 -6 5 0 7 -5 12 -12 12 -9 0
-9 -3 1 -12z"/>
<path d="M6292 7356 c7 -8 15 -12 17 -11 5 6 -10 25 -20 25 -5 0 -4 -6 3 -14z"/>
<path d="M6270 7320 c0 -5 5 -10 11 -10 5 0 7 5 4 10 -3 6 -8 10 -11 10 -2 0
-4 -4 -4 -10z"/>
<path d="M6307 7319 c7 -7 15 -10 18 -7 3 3 -2 9 -12 12 -14 6 -15 5 -6 -5z"/>
<path d="M6413 7285 c0 -8 4 -12 9 -9 5 3 6 10 3 15 -9 13 -12 11 -12 -6z"/>
<path d="M6436 7218 c3 -5 10 -6 15 -3 13 9 11 12 -6 12 -8 0 -12 -4 -9 -9z"/>
<path d="M6490 7208 c-10 -21 -10 -21 3 -6 8 10 18 14 22 10 5 -4 5 -1 1 6
-10 17 -14 15 -26 -10z"/>
<path d="M6610 7136 c0 -2 8 -10 18 -17 15 -13 16 -12 3 4 -13 16 -21 21 -21
13z"/>
<path d="M6580 7120 c0 -6 4 -9 9 -6 5 4 12 1 14 -4 3 -6 4 -5 3 2 -3 15 -26
23 -26 8z"/>
<path d="M6628 7093 c7 -3 16 -2 19 1 4 3 -2 6 -13 5 -11 0 -14 -3 -6 -6z"/>
<path d="M6630 7076 c0 -2 9 -6 20 -9 11 -3 18 -1 14 4 -5 9 -34 13 -34 5z"/>
<path d="M6713 7023 c0 -7 4 -13 8 -13 4 0 9 6 12 13 3 8 0 14 -7 14 -7 0 -13
-6 -13 -14z"/>
<path d="M6786 6975 c4 -8 11 -15 16 -15 6 0 5 6 -2 15 -7 8 -14 15 -16 15 -2
0 -1 -7 2 -15z"/>
<path d="M6776 6939 c4 -8 30 -6 38 2 3 3 -5 5 -19 5 -13 0 -22 -3 -19 -7z"/>
<path d="M6835 6880 c-3 -5 -1 -10 4 -10 6 0 11 5 11 10 0 6 -2 10 -4 10 -3 0
-8 -4 -11 -10z"/>
<path d="M6873 6853 c0 -7 4 -13 8 -13 4 0 9 6 12 13 3 8 0 14 -7 14 -7 0 -13
-6 -13 -14z"/>
<path d="M6907 6847 c-3 -8 1 -14 8 -14 7 0 11 6 8 14 -3 7 -6 13 -8 13 -2 0
-5 -6 -8 -13z"/>
<path d="M6935 6821 c-6 -11 13 -26 22 -17 4 3 1 6 -6 6 -7 0 -9 5 -6 10 3 6
4 10 1 10 -3 0 -7 -4 -11 -9z"/>
<path d="M6970 6790 c0 -5 5 -10 11 -10 5 0 7 5 4 10 -3 6 -8 10 -11 10 -2 0
-4 -4 -4 -10z"/>
<path d="M6956 6758 c3 -5 10 -6 15 -3 13 9 11 12 -6 12 -8 0 -12 -4 -9 -9z"/>
<path d="M6993 6735 c0 -8 4 -12 9 -9 5 3 6 10 3 15 -9 13 -12 11 -12 -6z"/>
<path d="M7027 6719 c7 -7 15 -10 18 -7 3 3 -2 9 -12 12 -14 6 -15 5 -6 -5z"/>
<path d="M7000 6700 c8 -5 20 -10 25 -10 6 0 3 5 -5 10 -8 5 -19 10 -25 10 -5
0 -3 -5 5 -10z"/>
<path d="M7075 6641 c-3 -5 -2 -12 3 -15 5 -3 9 1 9 9 0 17 -3 19 -12 6z"/>
<path d="M7120 6565 c0 -2 6 -8 13 -14 10 -8 14 -7 14 2 0 8 -6 14 -14 14 -7
0 -13 -1 -13 -2z"/>
<path d="M7226 6463 c-6 -14 -5 -15 5 -6 7 7 10 15 7 18 -3 3 -9 -2 -12 -12z"/>
<path d="M7334 6262 c4 -3 14 -7 22 -8 9 -1 13 0 10 4 -4 3 -14 7 -22 8 -9 1
-13 0 -10 -4z"/>
<path d="M7375 6210 c-3 -5 -2 -18 4 -27 7 -14 9 -12 8 10 -2 30 -3 31 -12 17z"/>
<path d="M7471 6084 c0 -11 3 -14 6 -6 3 7 2 16 -1 19 -3 4 -6 -2 -5 -13z"/>
<path d="M7493 6010 c-1 -11 2 -22 6 -24 4 -3 7 4 6 14 -2 27 -10 33 -12 10z"/>
<path d="M7550 5896 c0 -2 8 -10 18 -17 15 -13 16 -12 3 4 -13 16 -21 21 -21
13z"/>
<path d="M7576 5802 c-3 -4 4 -9 15 -9 23 -2 25 3 4 10 -8 4 -16 3 -19 -1z"/>
<path d="M7614 5738 c-4 -7 -4 -10 1 -6 4 4 15 2 24 -5 14 -11 14 -10 2 6 -16
20 -18 21 -27 5z"/>
<path d="M7690 5561 c0 -6 4 -13 10 -16 6 -3 7 1 4 9 -7 18 -14 21 -14 7z"/>
<path d="M7695 5521 c-3 -5 -2 -12 3 -15 5 -3 9 1 9 9 0 17 -3 19 -12 6z"/>
<path d="M7775 5260 c3 -5 8 -10 11 -10 2 0 4 5 4 10 0 6 -5 10 -11 10 -5 0
-7 -4 -4 -10z"/>
<path d="M4635 3842 c1 -9 8 -16 15 -14 7 2 10 -3 7 -11 -3 -8 -1 -20 5 -28 8
-11 9 -11 5 2 -3 9 -2 20 3 25 5 5 -2 17 -15 26 -22 17 -23 17 -20 0z"/>
<path d="M4635 3780 c-3 -5 -1 -10 4 -10 6 0 11 5 11 10 0 6 -2 10 -4 10 -3 0
-8 -4 -11 -10z"/>
<path d="M4670 3762 c0 -5 7 -9 15 -9 8 0 12 4 9 9 -3 4 -9 8 -15 8 -5 0 -9
-4 -9 -8z"/>
<path d="M4758 3733 c7 -3 16 -2 19 1 4 3 -2 6 -13 5 -11 0 -14 -3 -6 -6z"/>
<path d="M4730 3705 c0 -7 30 -13 34 -7 3 4 -4 9 -15 9 -10 1 -19 0 -19 -2z"/>
<path d="M4822 3697 c10 -8 15 -17 11 -20 -3 -4 -1 -7 5 -7 20 0 13 19 -10 30
-21 10 -21 10 -6 -3z"/>
<path d="M4786 3682 c-2 -4 4 -8 14 -8 10 0 16 4 14 8 -3 4 -9 8 -14 8 -5 0
-11 -4 -14 -8z"/>
<path d="M4855 3660 c-3 -5 -1 -10 4 -10 6 0 11 5 11 10 0 6 -2 10 -4 10 -3 0
-8 -4 -11 -10z"/>
<path d="M4878 3633 c7 -3 16 -2 19 1 4 3 -2 6 -13 5 -11 0 -14 -3 -6 -6z"/>
<path d="M4910 3620 c0 -5 5 -10 11 -10 5 0 7 5 4 10 -3 6 -8 10 -11 10 -2 0
-4 -4 -4 -10z"/>
<path d="M4934 3599 c-4 -7 -3 -9 4 -5 5 3 13 0 15 -6 4 -9 6 -10 6 -1 1 17
-16 25 -25 12z"/>
<path d="M4924 3563 c4 -4 16 -8 28 -10 12 -2 19 -1 16 2 -3 3 -16 8 -28 10
-12 2 -20 1 -16 -2z"/>
<path d="M5039 3473 c-12 -16 -12 -17 2 -6 9 7 20 9 24 5 5 -4 5 -1 1 6 -9 16
-11 15 -27 -5z"/>
<path d="M5115 3453 c11 -3 29 -12 40 -22 20 -16 20 -16 1 7 -11 12 -29 21
-40 21 -20 -1 -20 -2 -1 -6z"/>
<path d="M5126 3422 c-3 -5 1 -9 9 -9 8 0 12 4 9 9 -3 4 -7 8 -9 8 -2 0 -6 -4
-9 -8z"/>
<path d="M5160 3400 c-9 -6 -10 -10 -3 -10 6 0 15 5 18 10 8 12 4 12 -15 0z"/>
<path d="M5155 3369 c-4 -6 -5 -12 -2 -15 2 -3 7 2 10 11 7 17 1 20 -8 4z"/>
<path d="M4635 3360 c-3 -5 -1 -10 4 -10 6 0 11 5 11 10 0 6 -2 10 -4 10 -3 0
-8 -4 -11 -10z"/>
<path d="M5210 3359 c0 -5 5 -7 10 -4 6 3 10 8 10 11 0 2 -4 4 -10 4 -5 0 -10
-5 -10 -11z"/>
<path d="M5255 3350 c6 -9 4 -12 -7 -8 -8 4 -21 3 -27 -2 -9 -5 -4 -7 13 -7
30 0 42 12 25 23 -8 5 -9 3 -4 -6z"/>
<path d="M5295 3301 c-3 -5 0 -13 6 -17 8 -5 9 -3 4 6 -6 10 -4 12 9 7 10 -4
15 -3 11 3 -8 13 -22 13 -30 1z"/>
<path d="M5350 3260 c0 -5 5 -10 11 -10 5 0 7 5 4 10 -3 6 -8 10 -11 10 -2 0
-4 -4 -4 -10z"/>
<path d="M5375 3241 c-3 -5 -2 -12 3 -15 5 -3 9 1 9 9 0 17 -3 19 -12 6z"/>
<path d="M5335 3220 c3 -5 8 -10 11 -10 2 0 4 5 4 10 0 6 -5 10 -11 10 -5 0
-7 -4 -4 -10z"/>
<path d="M5393 3195 c0 -8 4 -12 9 -9 4 3 8 9 8 15 0 5 -4 9 -8 9 -5 0 -9 -7
-9 -15z"/>
<path d="M5450 3187 c0 -2 15 -14 33 -27 20 -15 27 -17 18 -6 -13 16 -51 41
-51 33z"/>
<path d="M5433 3165 c0 -8 4 -15 9 -15 4 0 8 4 8 9 0 6 -4 12 -8 15 -5 3 -9
-1 -9 -9z"/>
<path d="M5535 3110 c-3 -5 -1 -10 4 -10 6 0 11 5 11 10 0 6 -2 10 -4 10 -3 0
-8 -4 -11 -10z"/>
<path d="M5576 3081 c-4 -5 -2 -12 3 -15 5 -4 12 -2 15 3 4 5 2 12 -3 15 -5 4
-12 2 -15 -3z"/>
<path d="M4635 3040 c-3 -5 -1 -10 4 -10 6 0 11 5 11 10 0 6 -2 10 -4 10 -3 0
-8 -4 -11 -10z"/>
<path d="M5598 3043 c7 -3 16 -2 19 1 4 3 -2 6 -13 5 -11 0 -14 -3 -6 -6z"/>
<path d="M5633 3025 c0 -8 4 -15 9 -15 4 0 8 4 8 9 0 6 -4 12 -8 15 -5 3 -9
-1 -9 -9z"/>
<path d="M5695 2979 c-5 -8 -4 -10 3 -5 8 5 12 -1 13 -16 1 -18 2 -19 6 -4 6
23 -12 43 -22 25z"/>
<path d="M5737 2929 c4 -13 8 -18 11 -10 2 7 -1 18 -6 23 -8 8 -9 4 -5 -13z"/>
<path d="M5780 2916 c0 -2 7 -7 16 -10 8 -3 12 -2 9 4 -6 10 -25 14 -25 6z"/>
<path d="M5851 2844 c0 -11 3 -14 6 -6 3 7 2 16 -1 19 -3 4 -6 -2 -5 -13z"/>
<path d="M5866 2825 c-11 -8 -15 -15 -9 -15 7 0 15 5 18 10 4 6 11 7 17 4 7
-4 8 -2 4 4 -9 14 -7 15 -30 -3z"/>
<path d="M5885 2800 c-3 -6 1 -7 9 -4 18 7 21 14 7 14 -6 0 -13 -4 -16 -10z"/>
<path d="M5944 2763 c10 -12 15 -27 11 -35 -7 -10 -5 -11 6 0 11 10 9 16 -11
35 -24 22 -24 22 -6 0z"/>
<path d="M6005 2719 c-4 -6 -4 -13 -1 -16 3 -4 6 -1 6 6 0 7 5 9 12 5 7 -4 8
-3 4 4 -9 15 -13 15 -21 1z"/>
<path d="M4635 2651 c-3 -5 -2 -12 3 -15 5 -3 9 1 9 9 0 17 -3 19 -12 6z"/>
<path d="M6097 2649 c7 -7 15 -10 18 -7 3 3 -2 9 -12 12 -14 6 -15 5 -6 -5z"/>
<path d="M6070 2640 c0 -5 5 -10 11 -10 5 0 7 5 4 10 -3 6 -8 10 -11 10 -2 0
-4 -4 -4 -10z"/>
<path d="M6136 2629 c5 -9 2 -10 -9 -6 -10 3 -17 2 -17 -4 0 -6 8 -9 18 -7 9
1 23 -1 30 -5 6 -5 12 -4 12 0 0 5 -9 14 -21 21 -16 10 -19 10 -13 1z"/>
<path d="M6180 2570 c6 -11 13 -20 16 -20 2 0 0 9 -6 20 -6 11 -13 20 -16 20
-2 0 0 -9 6 -20z"/>
<path d="M6252 2520 c0 -14 2 -19 5 -12 2 6 2 18 0 25 -3 6 -5 1 -5 -13z"/>
<path d="M6274 2489 c-3 -6 -2 -15 3 -20 5 -5 9 -1 9 11 0 23 -2 24 -12 9z"/>
<path d="M6240 2480 c-9 -6 -10 -10 -3 -10 6 0 15 5 18 10 8 12 4 12 -15 0z"/>
<path d="M6306 2463 c-6 -14 -5 -15 5 -6 7 7 10 15 7 18 -3 3 -9 -2 -12 -12z"/>
<path d="M6354 2439 c-4 -7 -3 -9 4 -5 5 3 13 0 15 -6 4 -9 6 -10 6 -1 1 17
-16 25 -25 12z"/>
<path d="M6315 2420 c3 -5 8 -10 11 -10 2 0 4 5 4 10 0 6 -5 10 -11 10 -5 0
-7 -4 -4 -10z"/>
<path d="M6353 2405 c0 -8 4 -12 9 -9 5 3 6 10 3 15 -9 13 -12 11 -12 -6z"/>
<path d="M6401 2376 c-8 -10 -9 -16 -1 -21 6 -4 9 -1 8 7 -2 7 3 12 10 10 8
-1 11 2 7 8 -8 13 -10 13 -24 -4z"/>
<path d="M6437 2366 c-4 -9 -3 -15 2 -11 5 3 11 0 13 -7 3 -7 7 -5 11 6 4 9 3
15 -2 11 -5 -3 -11 0 -13 7 -3 7 -7 5 -11 -6z"/>
<path d="M6475 2301 c-3 -5 -2 -12 3 -15 5 -3 9 1 9 9 0 17 -3 19 -12 6z"/>
<path d="M6531 2287 c2 -1 15 -11 29 -22 l25 -20 -19 23 c-11 12 -24 22 -29
22 -6 0 -8 -1 -6 -3z"/>
<path d="M6530 2265 c0 -5 5 -17 10 -25 5 -8 10 -10 10 -5 0 6 -5 17 -10 25
-5 8 -10 11 -10 5z"/>
<path d="M6590 2260 c0 -5 5 -10 11 -10 5 0 7 5 4 10 -3 6 -8 10 -11 10 -2 0
-4 -4 -4 -10z"/>
<path d="M6630 2220 c0 -6 7 -10 15 -10 8 0 15 2 15 4 0 2 -7 6 -15 10 -8 3
-15 1 -15 -4z"/>
<path d="M6646 2182 c-3 -5 1 -9 9 -9 8 0 12 4 9 9 -3 4 -7 8 -9 8 -2 0 -6 -4
-9 -8z"/>
<path d="M6700 2171 c0 -9 49 -56 53 -50 1 2 -10 16 -25 31 -15 15 -28 23 -28
19z"/>
<path d="M6656 2147 c3 -10 9 -15 12 -12 3 3 0 11 -7 18 -10 9 -11 8 -5 -6z"/>
<path d="M6749 2083 c-13 -16 -12 -17 4 -4 16 13 21 21 13 21 -2 0 -10 -8 -17
-17z"/>
<path d="M6776 2082 c-3 -5 1 -9 9 -9 8 0 12 4 9 9 -3 4 -7 8 -9 8 -2 0 -6 -4
-9 -8z"/>
<path d="M6820 2050 c6 -11 13 -20 16 -20 2 0 0 9 -6 20 -6 11 -13 20 -16 20
-2 0 0 -9 6 -20z"/>
<path d="M6897 2005 c-4 -8 -3 -16 1 -19 4 -3 9 4 9 15 2 23 -3 25 -10 4z"/>
<path d="M6894 1962 c4 -3 14 -7 22 -8 9 -1 13 0 10 4 -4 3 -14 7 -22 8 -9 1
-13 0 -10 -4z"/>
<path d="M6945 1959 c-11 -16 -1 -19 13 -3 7 8 8 14 3 14 -5 0 -13 -5 -16 -11z"/>
<path d="M4635 1691 c-3 -5 -2 -12 3 -15 5 -3 9 1 9 9 0 17 -3 19 -12 6z"/>
<path d="M4635 1440 c-3 -5 -1 -10 4 -10 6 0 11 5 11 10 0 6 -2 10 -4 10 -3 0
-8 -4 -11 -10z"/>
<path d="M4635 1120 c-3 -5 -1 -10 4 -10 6 0 11 5 11 10 0 6 -2 10 -4 10 -3 0
-8 -4 -11 -10z"/>
<path d="M95 4811 c-3 -5 -2 -12 3 -15 5 -3 9 1 9 9 0 17 -3 19 -12 6z"/>
<path d="M8535 4540 c-3 -5 -1 -10 4 -10 6 0 11 5 11 10 0 6 -2 10 -4 10 -3 0
-8 -4 -11 -10z"/>
<path d="M90 4219 c0 -5 5 -7 10 -4 6 3 10 8 10 11 0 2 -4 4 -10 4 -5 0 -10
-5 -10 -11z"/>
<path d="M8475 3561 c-3 -5 -2 -12 3 -15 5 -3 9 1 9 9 0 17 -3 19 -12 6z"/>
<path d="M8406 3342 c-3 -5 1 -9 9 -9 8 0 12 4 9 9 -3 4 -7 8 -9 8 -2 0 -6 -4
-9 -8z"/>
<path d="M314 3046 c1 -8 5 -18 8 -22 4 -3 5 1 4 10 -1 8 -5 18 -8 22 -4 3 -5
-1 -4 -10z"/>
<path d="M336 2938 c3 -5 10 -6 15 -3 13 9 11 12 -6 12 -8 0 -12 -4 -9 -9z"/>
<path d="M8296 2898 c3 -5 10 -6 15 -3 13 9 11 12 -6 12 -8 0 -12 -4 -9 -9z"/>
<path d="M367 2879 c7 -7 15 -10 18 -7 3 3 -2 9 -12 12 -14 6 -15 5 -6 -5z"/>
<path d="M376 2838 c3 -5 10 -6 15 -3 13 9 11 12 -6 12 -8 0 -12 -4 -9 -9z"/>
<path d="M410 2761 c0 -6 4 -13 10 -16 6 -3 7 1 4 9 -7 18 -14 21 -14 7z"/>
<path d="M8190 2679 c0 -5 5 -7 10 -4 6 3 10 8 10 11 0 2 -4 4 -10 4 -5 0 -10
-5 -10 -11z"/>
<path d="M457 2659 c7 -7 15 -10 18 -7 3 3 -2 9 -12 12 -14 6 -15 5 -6 -5z"/>
<path d="M8193 2635 c0 -8 4 -12 9 -9 5 3 6 10 3 15 -9 13 -12 11 -12 -6z"/>
<path d="M496 2562 c-3 -5 1 -9 9 -9 8 0 12 4 9 9 -3 4 -7 8 -9 8 -2 0 -6 -4
-9 -8z"/>
<path d="M476 2513 c-6 -14 -5 -15 5 -6 7 7 10 15 7 18 -3 3 -9 -2 -12 -12z"/>
<path d="M8099 2473 c-13 -16 -12 -17 4 -4 16 13 21 21 13 21 -2 0 -10 -8 -17
-17z"/>
<path d="M506 2462 c-3 -5 1 -9 9 -9 8 0 12 4 9 9 -3 4 -7 8 -9 8 -2 0 -6 -4
-9 -8z"/>
<path d="M577 2409 c4 -13 8 -18 11 -10 2 7 -1 18 -6 23 -8 8 -9 4 -5 -13z"/>
<path d="M8030 2359 c0 -5 5 -7 10 -4 6 3 10 8 10 11 0 2 -4 4 -10 4 -5 0 -10
-5 -10 -11z"/>
<path d="M610 2341 c0 -6 4 -13 10 -16 6 -3 7 1 4 9 -7 18 -14 21 -14 7z"/>
<path d="M8036 2327 c3 -10 9 -15 12 -12 3 3 0 11 -7 18 -10 9 -11 8 -5 -6z"/>
<path d="M626 2302 c-3 -5 1 -9 9 -9 8 0 12 4 9 9 -3 4 -7 8 -9 8 -2 0 -6 -4
-9 -8z"/>
<path d="M8000 2300 c-9 -6 -10 -10 -3 -10 6 0 15 5 18 10 8 12 4 12 -15 0z"/>
<path d="M657 2259 c7 -7 15 -10 18 -7 3 3 -2 9 -12 12 -14 6 -15 5 -6 -5z"/>
<path d="M7969 2243 c-13 -16 -12 -17 4 -4 16 13 21 21 13 21 -2 0 -10 -8 -17
-17z"/>
<path d="M7949 2183 c-13 -16 -12 -17 4 -4 16 13 21 21 13 21 -2 0 -10 -8 -17
-17z"/>
<path d="M711 2127 c-8 -10 -7 -14 2 -14 8 0 14 6 14 14 0 7 -1 13 -2 13 -2 0
-8 -6 -14 -13z"/>
<path d="M7867 2106 c-4 -10 -1 -13 8 -9 8 3 12 9 9 14 -7 12 -11 11 -17 -5z"/>
<path d="M7836 2042 c-3 -5 1 -9 9 -9 8 0 12 4 9 9 -3 4 -7 8 -9 8 -2 0 -6 -4
-9 -8z"/>
<path d="M7855 2001 c-3 -5 -2 -12 3 -15 5 -3 9 1 9 9 0 17 -3 19 -12 6z"/>
<path d="M7796 1982 c-2 -4 -1 -14 4 -22 7 -11 9 -9 7 8 -1 24 -3 26 -11 14z"/>
<path d="M870 1916 c0 -2 8 -10 18 -17 15 -13 16 -12 3 4 -13 16 -21 21 -21
13z"/>
<path d="M855 1881 c-3 -5 -2 -12 3 -15 5 -3 9 1 9 9 0 17 -3 19 -12 6z"/>
<path d="M7775 1881 c-3 -5 -2 -12 3 -15 5 -3 9 1 9 9 0 17 -3 19 -12 6z"/>
<path d="M953 1832 c0 -12 5 -22 9 -22 11 0 10 12 -2 30 -7 12 -9 10 -7 -8z"/>
<path d="M1005 1759 c-4 -6 -4 -13 -1 -16 3 -4 6 -1 6 6 0 7 5 9 12 5 7 -4 8
-3 4 4 -9 15 -13 15 -21 1z"/>
<path d="M7631 1748 c-14 -23 -14 -23 8 -4 22 20 25 26 13 26 -4 0 -13 -10
-21 -22z"/>
<path d="M7585 1729 c-11 -16 -1 -19 13 -3 7 8 8 14 3 14 -5 0 -13 -5 -16 -11z"/>
<path d="M1073 1650 c-1 -11 2 -22 6 -24 4 -3 7 4 6 14 -2 27 -10 33 -12 10z"/>
<path d="M7555 1659 c-11 -16 -1 -19 13 -3 7 8 8 14 3 14 -5 0 -13 -5 -16 -11z"/>
<path d="M7520 1646 c0 -2 8 -10 18 -17 15 -13 16 -12 3 4 -13 16 -21 21 -21
13z"/>
<path d="M1120 1615 c0 -5 5 -17 10 -25 5 -8 10 -10 10 -5 0 6 -5 17 -10 25
-5 8 -10 11 -10 5z"/>
<path d="M7502 1604 c-7 -8 -8 -14 -3 -14 10 0 25 19 20 25 -2 1 -10 -3 -17
-11z"/>
<path d="M1110 1560 c0 -5 5 -10 11 -10 5 0 7 5 4 10 -3 6 -8 10 -11 10 -2 0
-4 -4 -4 -10z"/>
<path d="M7475 1560 c-3 -5 -1 -10 4 -10 6 0 11 5 11 10 0 6 -2 10 -4 10 -3 0
-8 -4 -11 -10z"/>
<path d="M1176 1522 c-2 -4 -1 -14 4 -22 7 -11 9 -9 7 8 -1 24 -3 26 -11 14z"/>
<path d="M7397 1513 c-10 -9 -9 -23 1 -23 5 0 9 7 9 15 0 17 -1 18 -10 8z"/>
<path d="M1227 1479 c7 -7 15 -10 18 -7 3 3 -2 9 -12 12 -14 6 -15 5 -6 -5z"/>
<path d="M7416 1475 c-9 -26 -7 -32 5 -12 6 10 9 21 6 23 -2 3 -7 -2 -11 -11z"/>
<path d="M7347 1427 c-3 -8 1 -14 8 -14 7 0 11 6 8 14 -3 7 -6 13 -8 13 -2 0
-5 -6 -8 -13z"/>
<path d="M1226 1418 c3 -5 10 -6 15 -3 13 9 11 12 -6 12 -8 0 -12 -4 -9 -9z"/>
<path d="M7312 1411 c-11 -7 -11 -9 0 -14 9 -3 15 1 15 9 0 8 -1 14 -1 14 -1
0 -7 -4 -14 -9z"/>
<path d="M1310 1399 c0 -5 5 -7 10 -4 6 3 10 8 10 11 0 2 -4 4 -10 4 -5 0 -10
-5 -10 -11z"/>
<path d="M1330 1379 c0 -5 5 -7 10 -4 6 3 10 8 10 11 0 2 -4 4 -10 4 -5 0 -10
-5 -10 -11z"/>
<path d="M7359 1373 c-13 -16 -12 -17 4 -4 16 13 21 21 13 21 -2 0 -10 -8 -17
-17z"/>
<path d="M1346 1362 c-3 -5 1 -9 9 -9 8 0 12 4 9 9 -3 4 -7 8 -9 8 -2 0 -6 -4
-9 -8z"/>
<path d="M7255 1359 c-4 -6 -5 -12 -2 -15 2 -3 7 2 10 11 7 17 1 20 -8 4z"/>
<path d="M7270 1338 c0 -11 12 -10 30 2 12 7 10 9 -8 7 -12 0 -22 -5 -22 -9z"/>
<path d="M7175 1280 c-3 -5 -1 -10 4 -10 6 0 11 5 11 10 0 6 -2 10 -4 10 -3 0
-8 -4 -11 -10z"/>
<path d="M1454 1246 c2 -15 6 -29 9 -32 3 -4 5 6 3 20 -1 14 -5 29 -9 32 -3 3
-4 -6 -3 -20z"/>
<path d="M1491 1244 c0 -11 3 -14 6 -6 3 7 2 16 -1 19 -3 4 -6 -2 -5 -13z"/>
<path d="M7150 1249 c0 -5 5 -7 10 -4 6 3 10 8 10 11 0 2 -4 4 -10 4 -5 0 -10
-5 -10 -11z"/>
<path d="M1514 1229 c-4 -7 -3 -9 4 -5 5 3 13 0 15 -6 4 -9 6 -10 6 -1 1 17
-16 25 -25 12z"/>
<path d="M7080 1205 c-9 -11 -10 -19 -3 -26 8 -8 13 -7 18 2 5 8 4 10 -3 5 -7
-4 -12 -3 -12 3 0 5 8 15 18 20 9 6 12 11 6 11 -6 0 -17 -7 -24 -15z"/>
<path d="M7116 1193 c-6 -14 -5 -15 5 -6 7 7 10 15 7 18 -3 3 -9 -2 -12 -12z"/>
<path d="M1586 1162 c-3 -5 1 -9 9 -9 8 0 12 4 9 9 -3 4 -7 8 -9 8 -2 0 -6 -4
-9 -8z"/>
<path d="M7050 1162 c0 -5 7 -9 15 -9 8 0 12 4 9 9 -3 4 -9 8 -15 8 -5 0 -9
-4 -9 -8z"/>
<path d="M7018 1138 c5 -5 16 -8 23 -6 8 3 3 7 -10 11 -17 4 -21 3 -13 -5z"/>
<path d="M1617 1129 c7 -7 15 -10 18 -7 3 3 -2 9 -12 12 -14 6 -15 5 -6 -5z"/>
<path d="M6995 1120 c-3 -5 -1 -10 4 -10 6 0 11 5 11 10 0 6 -2 10 -4 10 -3 0
-8 -4 -11 -10z"/>
<path d="M1630 1100 c0 -5 5 -10 11 -10 5 0 7 5 4 10 -3 6 -8 10 -11 10 -2 0
-4 -4 -4 -10z"/>
<path d="M6970 1100 c0 -5 5 -10 11 -10 5 0 7 5 4 10 -3 6 -8 10 -11 10 -2 0
-4 -4 -4 -10z"/>
<path d="M1670 1090 c8 -5 20 -10 25 -10 6 0 3 5 -5 10 -8 5 -19 10 -25 10 -5
0 -3 -5 5 -10z"/>
<path d="M7015 1089 c-4 -6 -5 -12 -2 -15 2 -3 7 2 10 11 7 17 1 20 -8 4z"/>
<path d="M1700 1070 c-9 -6 -10 -10 -3 -10 6 0 15 5 18 10 8 12 4 12 -15 0z"/>
<path d="M6933 1047 c0 -7 9 -13 19 -13 10 0 18 1 18 3 0 1 -8 7 -18 12 -13 7
-19 6 -19 -2z"/>
<path d="M6881 1036 c-9 -10 -9 -16 -1 -21 6 -4 14 -4 17 -1 4 3 1 6 -7 6 -10
0 -10 3 0 15 7 8 10 15 7 15 -2 0 -10 -6 -16 -14z"/>
<path d="M1696 1022 c-3 -5 1 -9 9 -9 8 0 12 4 9 9 -3 4 -7 8 -9 8 -2 0 -6 -4
-9 -8z"/>
<path d="M1750 1011 c0 -5 5 -13 10 -16 6 -3 10 -2 10 4 0 5 -4 13 -10 16 -5
3 -10 2 -10 -4z"/>
<path d="M6816 983 c-6 -14 -5 -15 5 -6 7 7 10 15 7 18 -3 3 -9 -2 -12 -12z"/>
<path d="M1796 982 c-2 -4 -1 -14 4 -22 7 -11 9 -9 7 8 -1 24 -3 26 -11 14z"/>
<path d="M1821 964 c0 -11 3 -14 6 -6 3 7 2 16 -1 19 -3 4 -6 -2 -5 -13z"/>
<path d="M6853 965 c0 -8 4 -12 9 -9 5 3 6 10 3 15 -9 13 -12 11 -12 -6z"/>
<path d="M1836 933 c-6 -14 -5 -15 5 -6 7 7 10 15 7 18 -3 3 -9 -2 -12 -12z"/>
<path d="M6770 930 c-6 -11 -8 -20 -6 -20 3 0 10 9 16 20 6 11 8 20 6 20 -3 0
-10 -9 -16 -20z"/>
<path d="M1891 924 c0 -11 3 -14 6 -6 3 7 2 16 -1 19 -3 4 -6 -2 -5 -13z"/>
<path d="M6730 921 c0 -6 4 -13 10 -16 6 -3 7 1 4 9 -7 18 -14 21 -14 7z"/>
<path d="M1910 911 c0 -6 4 -13 10 -16 6 -3 7 1 4 9 -7 18 -14 21 -14 7z"/>
<path d="M1941 874 c0 -11 3 -14 6 -6 3 7 2 16 -1 19 -3 4 -6 -2 -5 -13z"/>
<path d="M6715 881 c-3 -5 -2 -12 3 -15 5 -3 9 1 9 9 0 17 -3 19 -12 6z"/>
<path d="M2015 841 c-3 -5 -2 -12 3 -15 5 -3 9 1 9 9 0 17 -3 19 -12 6z"/>
<path d="M6604 839 c-3 -6 -1 -16 5 -22 9 -9 10 -7 5 7 -6 15 -4 17 6 11 9 -5
11 -4 6 3 -9 15 -13 15 -22 1z"/>
<path d="M2060 811 c-8 -6 -18 -7 -22 -5 -4 3 -8 1 -8 -5 0 -14 39 -9 44 6 6
15 5 16 -14 4z"/>
<path d="M6590 800 c0 -5 5 -10 11 -10 5 0 7 5 4 10 -3 6 -8 10 -11 10 -2 0
-4 -4 -4 -10z"/>
<path d="M2110 779 c0 -5 5 -7 10 -4 14 9 13 -8 -2 -23 -9 -9 -9 -12 0 -12 7
0 12 5 12 11 0 5 5 7 11 3 8 -4 8 0 0 15 -12 22 -31 29 -31 10z"/>
<path d="M6533 774 c-3 -8 -3 -18 1 -21 3 -4 6 1 6 10 0 10 5 14 15 11 8 -4
15 -4 15 -1 0 14 -31 15 -37 1z"/>
<path d="M2030 761 c0 -6 4 -13 10 -16 6 -3 7 1 4 9 -7 18 -14 21 -14 7z"/>
<path d="M2150 740 c-8 -5 -10 -10 -5 -10 6 0 17 5 25 10 8 5 11 10 5 10 -5 0
-17 -5 -25 -10z"/>
<path d="M2192 725 c2 -12 -2 -19 -10 -17 -8 1 -11 -2 -7 -8 4 -6 15 -4 31 6
23 16 35 32 13 18 -6 -3 -15 0 -21 7 -7 11 -8 9 -6 -6z"/>
<path d="M6440 729 c0 -6 -7 -9 -15 -5 -21 8 -19 -1 3 -13 14 -8 18 -6 19 10
1 10 0 19 -3 19 -2 0 -4 -5 -4 -11z"/>
<path d="M2230 700 c0 -5 5 -10 10 -10 6 0 10 5 10 10 0 6 -4 10 -10 10 -5 0
-10 -4 -10 -10z"/>
<path d="M6390 700 c0 -5 5 -10 10 -10 6 0 10 5 10 10 0 6 -4 10 -10 10 -5 0
-10 -4 -10 -10z"/>
<path d="M2290 680 c0 -5 5 -10 11 -10 5 0 7 5 4 10 -3 6 -8 10 -11 10 -2 0
-4 -4 -4 -10z"/>
<path d="M2210 659 c0 -5 5 -7 10 -4 6 3 10 8 10 11 0 2 -4 4 -10 4 -5 0 -10
-5 -10 -11z"/>
<path d="M2275 649 c-4 -6 -5 -12 -2 -15 2 -3 7 2 10 11 7 17 1 20 -8 4z"/>
<path d="M2311 649 c-1 -9 7 -23 17 -30 15 -12 16 -12 6 1 -6 8 -14 22 -17 30
-5 13 -6 12 -6 -1z"/>
<path d="M6306 644 c-20 -19 -20 -25 -2 -18 8 3 17 12 20 20 7 18 1 18 -18 -2z"/>
<path d="M6351 653 c-1 -17 16 -25 25 -12 4 7 3 9 -4 5 -5 -3 -13 0 -15 6 -4
9 -6 10 -6 1z"/>
<path d="M2366 624 c-11 -8 -16 -14 -10 -14 13 0 39 18 34 24 -3 2 -14 -2 -24
-10z"/>
<path d="M2420 616 c0 -2 7 -9 15 -16 9 -7 15 -8 15 -2 0 5 -7 12 -15 16 -8 3
-15 4 -15 2z"/>
<path d="M2379 608 c-5 -18 -6 -38 -1 -34 7 8 12 36 6 36 -2 0 -4 -1 -5 -2z"/>
<path d="M6270 606 c0 -2 7 -7 16 -10 8 -3 12 -2 9 4 -6 10 -25 14 -25 6z"/>
<path d="M6165 589 c-4 -6 -5 -12 -2 -15 2 -3 7 2 10 11 7 17 1 20 -8 4z"/>
<path d="M6197 589 c7 -7 15 -10 18 -7 3 3 -2 9 -12 12 -14 6 -15 5 -6 -5z"/>
<path d="M2456 582 c-2 -4 0 -14 6 -22 8 -12 9 -11 4 3 -5 15 -2 17 17 12 17
-5 19 -4 7 4 -18 13 -27 14 -34 3z"/>
<path d="M6110 560 c0 -5 5 -10 11 -10 5 0 7 5 4 10 -3 6 -8 10 -11 10 -2 0
-4 -4 -4 -10z"/>
<path d="M6196 553 c-6 -14 -5 -15 5 -6 7 7 10 15 7 18 -3 3 -9 -2 -12 -12z"/>
<path d="M6095 540 c5 -9 1 -10 -16 -6 -21 6 -22 6 -6 -5 13 -7 22 -8 29 -1 6
6 6 12 -3 17 -8 6 -10 4 -4 -5z"/>
<path d="M6136 527 c3 -10 9 -15 12 -12 3 3 0 11 -7 18 -10 9 -11 8 -5 -6z"/>
<path d="M2584 518 c10 -6 22 -6 26 -2 5 5 -3 10 -18 11 -22 1 -24 0 -8 -9z"/>
<path d="M6015 519 c-4 -6 -5 -12 -2 -15 2 -3 7 2 10 11 7 17 1 20 -8 4z"/>
<path d="M2619 508 c-6 -22 -5 -39 3 -45 7 -4 8 -1 3 7 -6 9 -4 12 7 8 8 -4
15 -1 15 7 0 8 -7 11 -15 7 -10 -3 -13 -1 -8 6 4 7 5 12 2 12 -3 0 -6 -1 -7
-2z"/>
<path d="M5950 489 c0 -5 -4 -7 -10 -4 -5 3 -10 4 -10 1 0 -3 9 -10 19 -15 16
-9 18 -8 14 9 -6 21 -13 27 -13 9z"/>
<path d="M2708 472 c-3 -11 0 -19 7 -19 7 0 10 8 7 19 -2 10 -6 18 -7 18 -1 0
-5 -8 -7 -18z"/>
<path d="M5875 461 c-16 -10 -34 -16 -40 -13 -5 3 -4 -2 4 -11 15 -19 26 -23
16 -7 -4 6 7 15 24 21 17 6 31 15 31 20 0 11 2 11 -35 -10z"/>
<path d="M2670 460 c0 -5 5 -10 11 -10 5 0 7 5 4 10 -3 6 -8 10 -11 10 -2 0
-4 -4 -4 -10z"/>
<path d="M5900 446 c0 -2 8 -10 18 -17 15 -13 16 -12 3 4 -13 16 -21 21 -21
13z"/>
<path d="M2894 412 c3 -6 -2 -13 -11 -15 -16 -4 -16 -5 -1 -6 21 -1 32 15 17
25 -7 4 -9 3 -5 -4z"/>
<path d="M2809 397 c6 -8 7 -18 3 -22 -4 -5 -1 -5 6 -1 10 6 10 11 1 22 -6 8
-14 14 -16 14 -3 0 0 -6 6 -13z"/>
<path d="M5810 399 c0 -5 5 -7 10 -4 6 3 10 8 10 11 0 2 -4 4 -10 4 -5 0 -10
-5 -10 -11z"/>
<path d="M2943 386 c0 -11 33 -16 39 -5 2 2 1 3 -1 2 -2 -1 -11 2 -21 7 -12 6
-17 5 -17 -4z"/>
<path d="M2914 365 c0 -28 8 -24 13 5 2 11 -1 20 -5 20 -4 0 -8 -11 -8 -25z"/>
<path d="M2995 370 c-3 -5 -5 -10 -3 -11 33 -8 38 -7 27 7 -14 17 -16 17 -24
4z"/>
<path d="M3072 344 c-7 -8 -8 -14 -3 -14 10 0 25 19 20 25 -2 1 -10 -3 -17
-11z"/>
<path d="M5575 350 c-8 -13 9 -20 24 -11 10 6 9 10 -3 14 -8 3 -18 2 -21 -3z"/>
<path d="M3028 333 c7 -3 16 -2 19 1 4 3 -2 6 -13 5 -11 0 -14 -3 -6 -6z"/>
<path d="M3130 319 c0 -5 3 -8 8 -7 4 0 15 -2 25 -7 15 -6 15 -10 5 -24 -12
-14 -11 -15 5 -2 17 13 17 16 3 26 -9 7 -14 14 -11 16 2 3 -5 5 -15 6 -11 1
-20 -2 -20 -8z"/>
<path d="M5450 318 c0 -4 4 -8 9 -8 6 0 12 4 15 8 3 5 -1 9 -9 9 -8 0 -15 -4
-15 -9z"/>
<path d="M5546 322 c-2 -4 4 -8 14 -8 10 0 16 4 14 8 -3 4 -9 8 -14 8 -5 0
-11 -4 -14 -8z"/>
<path d="M3198 313 c7 -3 16 -2 19 1 4 3 -2 6 -13 5 -11 0 -14 -3 -6 -6z"/>
<path d="M3113 295 c0 -8 4 -12 9 -9 5 3 6 10 3 15 -9 13 -12 11 -12 -6z"/>
<path d="M5393 281 c0 -11 5 -18 9 -15 4 3 5 11 1 19 -7 21 -12 19 -10 -4z"/>
<path d="M5466 284 c-5 -14 -4 -15 9 -4 17 14 19 20 6 20 -5 0 -12 -7 -15 -16z"/>
<path d="M3236 274 c-3 -9 -11 -12 -18 -8 -7 4 -9 3 -5 -1 14 -16 33 -13 34 6
2 23 -3 24 -11 3z"/>
<path d="M3270 268 c-12 -22 -12 -22 6 -6 10 10 15 20 12 24 -4 3 -12 -5 -18
-18z"/>
<path d="M3330 286 c0 -2 8 -10 18 -17 15 -13 16 -12 3 4 -13 16 -21 21 -21
13z"/>
<path d="M3370 271 c0 -5 5 -13 10 -16 6 -3 10 -2 10 4 0 5 -4 13 -10 16 -5 3
-10 2 -10 -4z"/>
<path d="M3300 266 c0 -2 9 -6 20 -9 11 -3 18 -1 14 4 -5 9 -34 13 -34 5z"/>
<path d="M5335 261 c-3 -5 -2 -12 3 -15 5 -3 9 1 9 9 0 17 -3 19 -12 6z"/>
<path d="M5490 266 c0 -2 7 -7 16 -10 8 -3 12 -2 9 4 -6 10 -25 14 -25 6z"/>
<path d="M3404 248 c3 -15 26 -23 26 -8 0 6 -4 9 -9 6 -5 -4 -12 -1 -14 4 -3
6 -4 5 -3 -2z"/>
<path d="M5186 251 c-3 -5 2 -15 12 -22 15 -13 16 -12 4 3 -10 13 -10 17 0 21
9 4 9 6 1 6 -6 1 -14 -3 -17 -8z"/>
<path d="M5221 244 c0 -11 3 -14 6 -6 3 7 2 16 -1 19 -3 4 -6 -2 -5 -13z"/>
<path d="M5247 247 c-3 -8 1 -14 8 -14 7 0 11 6 8 14 -6 16 -10 16 -16 0z"/>
<path d="M3350 240 c0 -5 5 -10 10 -10 6 0 10 5 10 10 0 6 -4 10 -10 10 -5 0
-10 -4 -10 -10z"/>
<path d="M3490 243 c0 -16 25 -23 41 -11 11 8 11 9 -2 5 -9 -3 -22 0 -28 6 -8
8 -11 8 -11 0z"/>
<path d="M5095 230 c-3 -5 -5 -10 -3 -11 33 -8 38 -7 27 7 -14 17 -16 17 -24
4z"/>
<path d="M5315 231 c-3 -5 -2 -12 3 -15 5 -3 9 1 9 9 0 17 -3 19 -12 6z"/>
<path d="M3595 220 c-3 -5 -1 -10 4 -10 6 0 11 5 11 10 0 6 -2 10 -4 10 -3 0
-8 -4 -11 -10z"/>
<path d="M5170 220 c0 -5 5 -10 11 -10 5 0 7 5 4 10 -3 6 -8 10 -11 10 -2 0
-4 -4 -4 -10z"/>
<path d="M3563 200 c-8 -12 -9 -21 -3 -25 6 -4 9 -1 8 7 -2 7 2 12 9 11 7 -2
10 4 7 12 -8 19 -7 19 -21 -5z"/>
<path d="M3616 205 c-3 -8 -1 -15 4 -15 6 0 10 7 10 15 0 8 -2 15 -4 15 -2 0
-6 -7 -10 -15z"/>
<path d="M3670 211 c-8 -6 -19 -7 -25 -3 -5 3 -4 -2 4 -11 15 -18 26 -23 16
-7 -3 6 1 10 9 10 9 0 16 5 16 10 0 12 -1 12 -20 1z"/>
<path d="M4975 210 c-3 -6 1 -7 9 -4 18 7 21 14 7 14 -6 0 -13 -4 -16 -10z"/>
<path d="M5050 209 c0 -5 -4 -8 -9 -4 -5 3 -12 1 -15 -4 -4 -5 2 -8 11 -7 15
3 33 26 19 26 -3 0 -6 -5 -6 -11z"/>
<path d="M3430 199 c0 -5 5 -7 10 -4 6 3 10 8 10 11 0 2 -4 4 -10 4 -5 0 -10
-5 -10 -11z"/>
<path d="M3506 202 c-3 -5 1 -9 9 -9 8 0 12 4 9 9 -3 4 -7 8 -9 8 -2 0 -6 -4
-9 -8z"/>
<path d="M3744 195 c11 -8 24 -15 30 -15 5 0 1 7 -10 15 -10 8 -23 14 -29 14
-5 0 -1 -6 9 -14z"/>
<path d="M4895 199 c-4 -6 -5 -12 -2 -15 2 -3 7 2 10 11 7 17 1 20 -8 4z"/>
<path d="M4798 193 c-10 -2 -18 -9 -18 -14 0 -6 10 -5 23 2 37 20 36 23 -5 12z"/>
<path d="M4915 189 c-4 -6 -5 -12 -2 -15 2 -3 7 2 10 11 7 17 1 20 -8 4z"/>
<path d="M3895 180 c-3 -5 -1 -10 5 -10 6 0 8 -5 4 -12 -4 -7 -3 -8 4 -4 6 4
9 13 5 21 -6 18 -10 19 -18 5z"/>
<path d="M3926 178 c3 -5 10 -6 15 -3 13 9 11 12 -6 12 -8 0 -12 -4 -9 -9z"/>
<path d="M4873 171 c0 -11 5 -18 9 -15 4 3 5 11 1 19 -7 21 -12 19 -10 -4z"/>
<path d="M4935 180 c-4 -6 1 -7 11 -3 13 5 15 3 9 -8 -7 -11 -6 -12 7 -2 8 7
18 11 21 8 4 -3 5 -2 2 2 -9 11 -44 13 -50 3z"/>
<path d="M5070 179 c0 -5 5 -7 10 -4 6 3 10 8 10 11 0 2 -4 4 -10 4 -5 0 -10
-5 -10 -11z"/>
<path d="M3794 160 c0 -13 4 -16 12 -10 6 6 14 7 17 3 4 -3 7 -3 7 0 0 3 -8
11 -18 16 -14 7 -18 6 -18 -9z"/>
<path d="M3951 167 c-8 -10 -7 -14 2 -14 8 0 14 6 14 14 0 7 -1 13 -2 13 -2 0
-8 -6 -14 -13z"/>
<path d="M4562 171 c-11 -7 -10 -9 3 -14 9 -4 14 -3 10 2 -3 5 1 12 7 14 7 3
9 6 3 6 -5 0 -16 -3 -23 -8z"/>
<path d="M4645 160 c-10 -11 -15 -20 -10 -20 4 0 1 -8 -6 -17 -13 -16 -12 -17
3 -4 10 7 16 17 13 21 -7 11 20 31 30 22 5 -4 5 -1 1 6 -9 16 -10 16 -31 -8z"/>
<path d="M4830 171 c0 -6 4 -13 10 -16 6 -3 7 1 4 9 -7 18 -14 21 -14 7z"/>
<path d="M3860 162 c0 -5 7 -9 15 -9 8 0 12 4 9 9 -7 10 -24 10 -24 0z"/>
<path d="M4010 160 c0 -5 5 -10 10 -10 6 0 10 5 10 10 0 6 -4 10 -10 10 -5 0
-10 -4 -10 -10z"/>
<path d="M4110 160 c0 -5 5 -10 11 -10 5 0 7 5 4 10 -3 6 -8 10 -11 10 -2 0
-4 -4 -4 -10z"/>
<path d="M4154 161 c4 -5 1 -11 -6 -13 -7 -3 -3 -7 10 -10 19 -5 20 -4 11 13
-5 10 -12 19 -15 19 -3 0 -3 -4 0 -9z"/>
<path d="M4185 160 c-2 -3 5 -6 15 -7 11 -1 22 2 24 5 3 4 -4 8 -15 8 -11 0
-22 -3 -24 -6z"/>
<path d="M4239 153 c-11 -15 -11 -16 0 -6 7 6 20 9 29 6 10 -4 13 -2 8 5 -10
17 -21 15 -37 -5z"/>
<path d="M4321 158 c-1 -21 15 -32 25 -17 4 7 3 9 -4 5 -6 -3 -13 2 -15 11 -4
16 -5 16 -6 1z"/>
<path d="M4360 156 c7 -7 13 -7 20 0 6 6 3 10 -10 10 -13 0 -16 -4 -10 -10z"/>
<path d="M4414 158 c12 -7 21 -7 28 0 6 6 0 10 -18 10 -23 0 -24 -2 -10 -10z"/>
<path d="M4514 159 c-4 -7 -3 -9 4 -5 5 3 13 0 15 -6 4 -9 6 -10 6 -1 1 17
-16 25 -25 12z"/>
<path d="M4795 160 c-4 -6 -1 -9 7 -8 7 2 12 -3 10 -10 -1 -8 2 -11 8 -7 8 5
7 11 -1 21 -14 17 -16 17 -24 4z"/>
<path d="M4915 151 c-3 -5 -2 -12 3 -15 5 -3 9 1 9 9 0 17 -3 19 -12 6z"/>
<path d="M3927 139 c7 -7 15 -10 18 -7 3 3 -2 9 -12 12 -14 6 -15 5 -6 -5z"/>
<path d="M4060 146 c0 -2 11 -6 25 -8 13 -3 22 -1 19 3 -5 9 -44 13 -44 5z"/>
<path d="M4390 140 c0 -5 5 -10 10 -10 6 0 10 5 10 10 0 6 -4 10 -10 10 -5 0
-10 -4 -10 -10z"/>
<path d="M4492 140 c2 -9 -3 -14 -12 -12 -8 2 -11 0 -7 -4 13 -14 35 -12 33 2
-1 7 -6 17 -10 21 -4 4 -6 1 -4 -7z"/>
<path d="M4554 136 c1 -8 5 -18 8 -22 4 -3 5 1 4 10 -1 8 -5 18 -8 22 -4 3 -5
-1 -4 -10z"/>
<path d="M4253 127 c0 -8 6 -14 14 -14 9 0 10 4 2 14 -6 7 -12 13 -14 13 -1 0
-2 -6 -2 -13z"/>
<path d="M4135 120 c3 -5 8 -10 11 -10 2 0 4 5 4 10 0 6 -5 10 -11 10 -5 0 -7
-4 -4 -10z"/>
<path d="M4356 98 c3 -4 11 -5 19 -1 21 7 19 12 -4 10 -11 0 -18 -5 -15 -9z"/>
<path d="M4195 80 c-3 -5 -1 -10 4 -10 6 0 11 5 11 10 0 6 -2 10 -4 10 -3 0
-8 -4 -11 -10z"/>
<path d="M4279 73 c-13 -16 -12 -17 4 -4 16 13 21 21 13 21 -2 0 -10 -8 -17
-17z"/>
</g>
</svg>
